<svg xmlns="http://www.w3.org/2000/svg" viewBox="0 0 264.71 166.67"><defs><style>.cls-1{fill:#fff;}.cls-2{fill:#c1c1c1;}.cls-3{fill:#4c4c4c;}.cls-4{fill:#66522e;}.cls-5{fill:#ffe400;}.cls-6{fill:#d8a956;}.cls-7{fill:#3f3f3f;}.cls-8{fill:#828282;}.cls-9{fill:#d8c47b;}.cls-10{fill:#4d4b45;}.cls-11{fill:#b2b2b2;}</style></defs><title>fatk5</title><g id="Layer_2" data-name="Layer 2"><g id="Layer_1-2" data-name="Layer 1"><rect class="cls-1" x="254.91" y="78.43" width="9.8" height="9.81"/><rect class="cls-1" x="245.1" y="78.43" width="9.81" height="9.81"/><rect class="cls-1" x="235.3" y="88.24" width="9.8" height="9.8"/><rect class="cls-1" x="235.3" y="78.43" width="9.8" height="9.81"/><rect class="cls-1" x="235.3" y="68.63" width="9.8" height="9.8"/><rect class="cls-1" x="225.49" y="98.04" width="9.81" height="9.81"/><rect class="cls-1" x="225.49" y="88.24" width="9.81" height="9.8"/><rect class="cls-1" x="225.49" y="78.43" width="9.81" height="9.81"/><rect class="cls-1" x="225.49" y="68.63" width="9.81" height="9.8"/><rect class="cls-1" x="225.49" y="58.83" width="9.81" height="9.8"/><rect class="cls-1" x="215.69" y="107.85" width="9.8" height="9.8"/><rect class="cls-1" x="215.69" y="98.04" width="9.8" height="9.81"/><rect class="cls-1" x="215.69" y="88.24" width="9.8" height="9.8"/><rect class="cls-1" x="215.69" y="78.43" width="9.8" height="9.81"/><rect class="cls-1" x="215.69" y="68.63" width="9.8" height="9.8"/><rect class="cls-1" x="215.69" y="58.83" width="9.8" height="9.8"/><rect class="cls-1" x="215.69" y="49.02" width="9.8" height="9.81"/><rect class="cls-1" x="205.89" y="117.65" width="9.8" height="9.8"/><rect class="cls-1" x="205.89" y="107.85" width="9.8" height="9.8"/><rect class="cls-1" x="205.89" y="98.04" width="9.8" height="9.81"/><rect class="cls-1" x="205.89" y="88.24" width="9.8" height="9.8"/><rect class="cls-2" x="205.89" y="78.43" width="9.8" height="9.81"/><rect class="cls-1" x="205.89" y="68.63" width="9.8" height="9.8"/><rect class="cls-1" x="205.89" y="58.83" width="9.8" height="9.8"/><rect class="cls-1" x="205.89" y="49.02" width="9.8" height="9.81"/><rect class="cls-1" x="205.89" y="39.22" width="9.8" height="9.8"/><rect class="cls-1" x="196.08" y="127.45" width="9.81" height="9.81"/><rect class="cls-1" x="196.08" y="117.65" width="9.81" height="9.8"/><rect class="cls-1" x="196.08" y="107.85" width="9.81" height="9.8"/><rect class="cls-1" x="196.08" y="98.04" width="9.81" height="9.81"/><rect class="cls-2" x="196.08" y="88.24" width="9.81" height="9.8"/><rect class="cls-3" x="196.08" y="78.43" width="9.81" height="9.81"/><rect class="cls-2" x="196.08" y="68.63" width="9.81" height="9.8"/><rect class="cls-1" x="196.08" y="58.83" width="9.81" height="9.8"/><rect class="cls-1" x="196.08" y="49.02" width="9.81" height="9.81"/><rect class="cls-1" x="196.08" y="39.22" width="9.81" height="9.8"/><rect class="cls-1" x="196.08" y="29.41" width="9.81" height="9.81"/><rect class="cls-1" x="186.28" y="127.45" width="9.8" height="9.81"/><rect class="cls-1" x="186.28" y="117.65" width="9.8" height="9.8"/><rect class="cls-1" x="186.28" y="107.85" width="9.8" height="9.8"/><rect class="cls-1" x="186.28" y="98.04" width="9.8" height="9.81"/><rect class="cls-2" x="186.28" y="88.24" width="9.8" height="9.8"/><rect class="cls-3" x="186.28" y="78.43" width="9.8" height="9.81"/><rect class="cls-2" x="186.28" y="68.63" width="9.8" height="9.8"/><rect class="cls-1" x="186.28" y="58.83" width="9.8" height="9.8"/><rect class="cls-1" x="186.28" y="49.02" width="9.8" height="9.81"/><rect class="cls-1" x="186.28" y="39.22" width="9.8" height="9.8"/><rect class="cls-1" x="186.28" y="29.41" width="9.8" height="9.81"/><rect class="cls-1" x="176.47" y="127.45" width="9.81" height="9.81"/><rect class="cls-1" x="176.47" y="117.65" width="9.81" height="9.8"/><rect class="cls-1" x="176.47" y="107.85" width="9.81" height="9.8"/><rect class="cls-1" x="176.47" y="98.04" width="9.81" height="9.81"/><rect class="cls-2" x="176.47" y="88.24" width="9.81" height="9.8"/><rect class="cls-3" x="176.47" y="78.43" width="9.81" height="9.81"/><rect class="cls-2" x="176.47" y="68.63" width="9.81" height="9.8"/><rect class="cls-1" x="176.47" y="58.83" width="9.81" height="9.8"/><rect class="cls-1" x="176.47" y="49.02" width="9.81" height="9.81"/><rect class="cls-1" x="176.47" y="39.22" width="9.81" height="9.8"/><rect class="cls-1" x="176.47" y="29.41" width="9.81" height="9.81"/><rect class="cls-1" x="166.67" y="127.45" width="9.8" height="9.81"/><rect class="cls-1" x="166.67" y="117.65" width="9.8" height="9.8"/><rect class="cls-1" x="166.67" y="107.85" width="9.8" height="9.8"/><rect class="cls-2" x="166.67" y="88.24" width="9.8" height="9.8"/><rect class="cls-3" x="166.67" y="78.43" width="9.8" height="9.81"/><rect class="cls-2" x="166.67" y="68.63" width="9.8" height="9.8"/><rect class="cls-1" x="166.67" y="49.02" width="9.8" height="9.81"/><rect class="cls-1" x="166.67" y="39.22" width="9.8" height="9.8"/><rect class="cls-1" x="166.67" y="29.41" width="9.8" height="9.81"/><rect class="cls-1" x="156.87" y="127.45" width="9.8" height="9.81"/><rect class="cls-1" x="156.87" y="117.65" width="9.8" height="9.8"/><rect class="cls-2" x="156.87" y="98.04" width="9.8" height="9.81"/><rect class="cls-4" x="156.87" y="88.24" width="9.8" height="9.8"/><rect class="cls-5" x="156.87" y="78.43" width="9.8" height="9.81"/><rect class="cls-4" x="156.87" y="68.63" width="9.8" height="9.8"/><rect class="cls-2" x="156.87" y="58.83" width="9.8" height="9.8"/><rect class="cls-1" x="156.87" y="39.22" width="9.8" height="9.8"/><rect class="cls-1" x="156.87" y="29.41" width="9.8" height="9.81"/><rect class="cls-1" x="147.06" y="127.45" width="9.81" height="9.81"/><rect class="cls-4" x="147.06" y="98.04" width="9.81" height="9.81"/><rect class="cls-4" x="147.06" y="78.43" width="9.81" height="9.81"/><rect class="cls-4" x="147.06" y="58.83" width="9.81" height="9.8"/><rect class="cls-1" x="147.06" y="29.41" width="9.81" height="9.81"/><rect class="cls-4" x="137.26" y="98.04" width="9.8" height="9.81"/><rect class="cls-6" x="137.26" y="78.43" width="9.8" height="9.81"/><rect class="cls-4" x="137.26" y="58.83" width="9.8" height="9.8"/><rect class="cls-4" x="127.46" y="107.85" width="9.8" height="9.8"/><rect class="cls-4" x="127.46" y="78.43" width="9.8" height="9.81"/><rect class="cls-4" x="127.46" y="49.02" width="9.8" height="9.81"/><rect class="cls-7" x="127.46" y="29.41" width="9.8" height="9.81"/><rect x="117.65" y="78.43" width="9.81" height="9.81"/><rect class="cls-8" x="117.65" y="19.61" width="9.81" height="9.8"/><rect x="107.85" y="127.45" width="9.8" height="9.81"/><rect x="107.85" y="117.65" width="9.8" height="9.8"/><rect x="107.85" y="107.85" width="9.8" height="9.8"/><rect x="107.85" y="98.04" width="9.8" height="9.81"/><rect x="107.85" y="88.24" width="9.8" height="9.8"/><rect x="107.85" y="78.43" width="9.8" height="9.81"/><rect class="cls-6" x="107.85" y="68.63" width="9.8" height="9.8"/><rect class="cls-6" x="107.85" y="58.83" width="9.8" height="9.8"/><rect class="cls-6" x="107.85" y="49.02" width="9.8" height="9.81"/><rect class="cls-9" x="107.85" y="39.22" width="9.8" height="9.8"/><rect class="cls-9" x="107.85" y="29.41" width="9.8" height="9.81"/><rect class="cls-7" x="107.85" y="19.61" width="9.8" height="9.8"/><rect class="cls-8" x="107.85" y="9.81" width="9.8" height="9.8"/><rect x="98.04" y="156.87" width="9.81" height="9.8"/><rect x="98.04" y="147.06" width="9.81" height="9.81"/><rect x="98.04" y="137.26" width="9.81" height="9.8"/><rect x="98.04" y="127.45" width="9.81" height="9.81"/><rect x="98.04" y="117.65" width="9.81" height="9.8"/><rect x="98.04" y="107.85" width="9.81" height="9.8"/><rect class="cls-10" x="98.04" y="98.04" width="9.81" height="9.81"/><rect class="cls-10" x="98.04" y="88.24" width="9.81" height="9.8"/><rect x="98.04" y="78.43" width="9.81" height="9.81"/><rect class="cls-6" x="98.04" y="68.63" width="9.81" height="9.8"/><rect class="cls-6" x="98.04" y="58.83" width="9.81" height="9.8"/><rect x="98.04" y="49.02" width="9.81" height="9.81"/><rect x="98.04" y="39.22" width="9.81" height="9.8"/><rect class="cls-9" x="98.04" y="29.41" width="9.81" height="9.81"/><rect class="cls-7" x="98.04" y="19.61" width="9.81" height="9.8"/><rect class="cls-8" x="98.04" y="9.81" width="9.81" height="9.8"/><rect class="cls-8" x="98.04" width="9.81" height="9.81"/><rect x="88.24" y="127.45" width="9.8" height="9.81"/><rect x="88.24" y="117.65" width="9.8" height="9.8"/><rect class="cls-10" x="88.24" y="107.85" width="9.8" height="9.8"/><rect class="cls-10" x="88.24" y="98.04" width="9.8" height="9.81"/><rect class="cls-6" x="88.24" y="88.24" width="9.8" height="9.8"/><rect x="88.24" y="78.43" width="9.8" height="9.81"/><rect class="cls-6" x="88.24" y="68.63" width="9.8" height="9.8"/><rect class="cls-6" x="88.24" y="58.83" width="9.8" height="9.8"/><rect class="cls-6" x="88.24" y="49.02" width="9.8" height="9.81"/><rect class="cls-6" x="88.24" y="39.22" width="9.8" height="9.8"/><rect class="cls-9" x="88.24" y="29.41" width="9.8" height="9.81"/><rect class="cls-7" x="88.24" y="19.61" width="9.8" height="9.8"/><rect class="cls-7" x="88.24" y="9.81" width="9.8" height="9.8"/><rect class="cls-8" x="88.24" width="9.8" height="9.81"/><rect class="cls-10" x="78.44" y="127.45" width="9.8" height="9.81"/><rect class="cls-10" x="78.44" y="117.65" width="9.8" height="9.8"/><rect class="cls-10" x="78.44" y="107.85" width="9.8" height="9.8"/><rect class="cls-10" x="78.44" y="98.04" width="9.8" height="9.81"/><rect class="cls-6" x="78.44" y="88.24" width="9.8" height="9.8"/><rect x="78.44" y="78.43" width="9.8" height="9.81"/><rect class="cls-6" x="78.44" y="68.63" width="9.8" height="9.8"/><rect class="cls-6" x="78.44" y="58.83" width="9.8" height="9.8"/><rect class="cls-6" x="78.44" y="49.02" width="9.8" height="9.81"/><rect class="cls-6" x="78.44" y="39.22" width="9.8" height="9.8"/><rect class="cls-6" x="78.44" y="29.41" width="9.8" height="9.81"/><rect class="cls-7" x="78.44" y="19.61" width="9.8" height="9.8"/><rect class="cls-7" x="78.44" y="9.81" width="9.8" height="9.8"/><rect class="cls-10" x="68.63" y="127.45" width="9.81" height="9.81"/><rect class="cls-10" x="68.63" y="117.65" width="9.81" height="9.8"/><rect class="cls-11" x="68.63" y="107.85" width="9.81" height="9.8"/><rect class="cls-11" x="68.63" y="98.04" width="9.81" height="9.81"/><rect class="cls-6" x="68.63" y="88.24" width="9.81" height="9.8"/><rect x="68.63" y="78.43" width="9.81" height="9.81"/><rect class="cls-6" x="68.63" y="68.63" width="9.81" height="9.8"/><rect class="cls-6" x="68.63" y="58.83" width="9.81" height="9.8"/><rect class="cls-6" x="68.63" y="49.02" width="9.81" height="9.81"/><rect class="cls-6" x="68.63" y="39.22" width="9.81" height="9.8"/><rect class="cls-7" x="68.63" y="29.41" width="9.81" height="9.81"/><rect class="cls-7" x="68.63" y="19.61" width="9.81" height="9.8"/><rect class="cls-7" x="68.63" y="9.81" width="9.81" height="9.8"/><rect class="cls-8" x="68.63" width="9.81" height="9.81"/><rect class="cls-10" x="58.83" y="127.45" width="9.8" height="9.81"/><rect class="cls-10" x="58.83" y="117.65" width="9.8" height="9.8"/><rect class="cls-10" x="58.83" y="107.85" width="9.8" height="9.8"/><rect class="cls-10" x="58.83" y="98.04" width="9.8" height="9.81"/><rect class="cls-6" x="58.83" y="88.24" width="9.8" height="9.8"/><rect x="58.83" y="78.43" width="9.8" height="9.81"/><rect class="cls-6" x="58.83" y="68.63" width="9.8" height="9.8"/><rect class="cls-6" x="58.83" y="58.83" width="9.8" height="9.8"/><rect class="cls-6" x="58.83" y="49.02" width="9.8" height="9.81"/><rect class="cls-7" x="58.83" y="39.22" width="9.8" height="9.8"/><rect class="cls-7" x="58.83" y="29.41" width="9.8" height="9.81"/><rect class="cls-7" x="58.83" y="19.61" width="9.8" height="9.8"/><rect class="cls-7" x="58.83" y="9.81" width="9.8" height="9.8"/><rect class="cls-8" x="58.83" width="9.8" height="9.81"/><rect x="49.02" y="127.45" width="9.81" height="9.81"/><rect x="49.02" y="117.65" width="9.81" height="9.8"/><rect class="cls-10" x="49.02" y="107.85" width="9.81" height="9.8"/><rect class="cls-10" x="49.02" y="98.04" width="9.81" height="9.81"/><rect class="cls-6" x="49.02" y="88.24" width="9.81" height="9.8"/><rect x="49.02" y="78.43" width="9.81" height="9.81"/><rect class="cls-6" x="49.02" y="68.63" width="9.81" height="9.8"/><rect class="cls-6" x="49.02" y="58.83" width="9.81" height="9.8"/><rect class="cls-7" x="49.02" y="49.02" width="9.81" height="9.81"/><rect class="cls-7" x="49.02" y="39.22" width="9.81" height="9.8"/><rect class="cls-7" x="49.02" y="29.41" width="9.81" height="9.81"/><rect class="cls-7" x="49.02" y="19.61" width="9.81" height="9.8"/><rect class="cls-7" x="49.02" y="9.81" width="9.81" height="9.8"/><rect x="39.22" y="156.87" width="9.8" height="9.8"/><rect x="39.22" y="147.06" width="9.8" height="9.81"/><rect x="39.22" y="137.26" width="9.8" height="9.8"/><rect x="39.22" y="127.45" width="9.8" height="9.81"/><rect x="39.22" y="117.65" width="9.8" height="9.8"/><rect x="39.22" y="107.85" width="9.8" height="9.8"/><rect class="cls-10" x="39.22" y="98.04" width="9.8" height="9.81"/><rect class="cls-10" x="39.22" y="88.24" width="9.8" height="9.8"/><rect x="39.22" y="78.43" width="9.8" height="9.81"/><rect class="cls-6" x="39.22" y="68.63" width="9.8" height="9.8"/><rect class="cls-7" x="39.22" y="58.83" width="9.8" height="9.8"/><rect class="cls-7" x="39.22" y="49.02" width="9.8" height="9.81"/><rect class="cls-7" x="39.22" y="39.22" width="9.8" height="9.8"/><rect class="cls-7" x="39.22" y="29.41" width="9.8" height="9.81"/><rect class="cls-7" x="39.22" y="19.61" width="9.8" height="9.8"/><rect class="cls-7" x="39.22" y="9.81" width="9.8" height="9.8"/><rect class="cls-8" x="39.22" width="9.8" height="9.81"/><rect x="29.42" y="127.45" width="9.8" height="9.81"/><rect x="29.42" y="117.65" width="9.8" height="9.8"/><rect x="29.42" y="107.85" width="9.8" height="9.8"/><rect x="29.42" y="98.04" width="9.8" height="9.81"/><rect x="29.42" y="88.24" width="9.8" height="9.8"/><rect x="29.42" y="78.43" width="9.8" height="9.81"/><rect class="cls-6" x="29.42" y="68.63" width="9.8" height="9.8"/><rect class="cls-7" x="29.42" y="58.83" width="9.8" height="9.8"/><rect class="cls-7" x="29.42" y="49.02" width="9.8" height="9.81"/><rect class="cls-7" x="29.42" y="39.22" width="9.8" height="9.8"/><rect class="cls-7" x="29.42" y="29.41" width="9.8" height="9.81"/><rect class="cls-7" x="29.42" y="19.61" width="9.8" height="9.8"/><rect class="cls-7" x="29.42" y="9.81" width="9.8" height="9.8"/><rect class="cls-8" x="29.42" width="9.8" height="9.81"/><rect x="19.61" y="78.43" width="9.81" height="9.81"/><rect class="cls-7" x="19.61" y="9.81" width="9.81" height="9.8"/><rect class="cls-8" x="19.61" width="9.81" height="9.81"/><rect x="9.81" y="78.43" width="9.8" height="9.81"/><rect class="cls-6" y="78.43" width="9.81" height="9.81"/></g></g></svg>