<svg xmlns="http://www.w3.org/2000/svg" viewBox="0 0 147.06 166.67"><defs><style>.cls-1{fill:#3f3f3f;}.cls-2{fill:#828282;}.cls-3{fill:#d8a956;}.cls-4{fill:#d8c47b;}.cls-5{fill:#66522e;}.cls-6{fill:#4d4b45;}.cls-7{fill:#c1c1c1;}.cls-8{fill:#4c4c4c;}.cls-9{fill:#ffe400;}.cls-10{fill:#fff;}.cls-11{fill:#b2b2b2;}</style></defs><title>upatk3</title><g id="Layer_2" data-name="Layer 2"><g id="Layer_1-2" data-name="Layer 1"><rect class="cls-1" x="137.26" y="29.41" width="9.8" height="9.81"/><rect class="cls-2" x="127.45" y="19.61" width="9.81" height="9.8"/><rect x="117.65" y="127.45" width="9.8" height="9.81"/><rect x="117.65" y="117.65" width="9.8" height="9.8"/><rect x="117.65" y="107.85" width="9.8" height="9.8"/><rect x="117.65" y="98.04" width="9.8" height="9.81"/><rect x="117.65" y="88.24" width="9.8" height="9.8"/><rect x="117.65" y="78.43" width="9.8" height="9.81"/><rect class="cls-3" x="117.65" y="68.63" width="9.8" height="9.8"/><rect class="cls-3" x="117.65" y="58.83" width="9.8" height="9.8"/><rect class="cls-3" x="117.65" y="49.02" width="9.8" height="9.81"/><rect class="cls-4" x="117.65" y="39.22" width="9.8" height="9.8"/><rect class="cls-4" x="117.65" y="29.41" width="9.8" height="9.81"/><rect class="cls-1" x="117.65" y="19.61" width="9.8" height="9.8"/><rect class="cls-2" x="117.65" y="9.81" width="9.8" height="9.8"/><rect x="107.84" y="156.87" width="9.81" height="9.8"/><rect x="107.84" y="147.06" width="9.81" height="9.81"/><rect x="107.84" y="137.26" width="9.81" height="9.8"/><rect x="107.84" y="127.45" width="9.81" height="9.81"/><rect x="107.84" y="117.65" width="9.81" height="9.8"/><rect class="cls-5" x="107.84" y="107.85" width="9.81" height="9.8"/><rect class="cls-6" x="107.84" y="98.04" width="9.81" height="9.81"/><rect x="107.84" y="88.24" width="9.81" height="9.8"/><rect x="107.84" y="78.43" width="9.81" height="9.81"/><rect class="cls-3" x="107.84" y="68.63" width="9.81" height="9.8"/><rect class="cls-3" x="107.84" y="58.83" width="9.81" height="9.8"/><rect x="107.84" y="49.02" width="9.81" height="9.81"/><rect x="107.84" y="39.22" width="9.81" height="9.8"/><rect class="cls-4" x="107.84" y="29.41" width="9.81" height="9.81"/><rect class="cls-1" x="107.84" y="19.61" width="9.81" height="9.8"/><rect class="cls-2" x="107.84" y="9.81" width="9.81" height="9.8"/><rect class="cls-2" x="107.84" width="9.81" height="9.81"/><rect class="cls-7" x="98.04" y="147.06" width="9.8" height="9.81"/><rect class="cls-7" x="98.04" y="137.26" width="9.8" height="9.8"/><rect class="cls-7" x="98.04" y="127.45" width="9.8" height="9.81"/><rect class="cls-5" x="98.04" y="117.65" width="9.8" height="9.8"/><rect class="cls-6" x="98.04" y="107.85" width="9.8" height="9.8"/><rect x="98.04" y="98.04" width="9.8" height="9.81"/><rect class="cls-3" x="98.04" y="88.24" width="9.8" height="9.8"/><rect x="98.04" y="78.43" width="9.8" height="9.81"/><rect class="cls-3" x="98.04" y="68.63" width="9.8" height="9.8"/><rect class="cls-3" x="98.04" y="58.83" width="9.8" height="9.8"/><rect class="cls-3" x="98.04" y="49.02" width="9.8" height="9.81"/><rect class="cls-3" x="98.04" y="39.22" width="9.8" height="9.8"/><rect class="cls-4" x="98.04" y="29.41" width="9.8" height="9.81"/><rect class="cls-1" x="98.04" y="19.61" width="9.8" height="9.8"/><rect class="cls-1" x="98.04" y="9.81" width="9.8" height="9.8"/><rect class="cls-2" x="98.04" width="9.8" height="9.81"/><rect class="cls-7" x="88.24" y="156.87" width="9.8" height="9.8"/><rect class="cls-8" x="88.24" y="147.06" width="9.8" height="9.81"/><rect class="cls-8" x="88.24" y="137.26" width="9.8" height="9.8"/><rect class="cls-8" x="88.24" y="127.45" width="9.8" height="9.81"/><rect class="cls-9" x="88.24" y="117.65" width="9.8" height="9.8"/><rect class="cls-3" x="88.24" y="107.85" width="9.8" height="9.8"/><rect class="cls-6" x="88.24" y="98.04" width="9.8" height="9.81"/><rect class="cls-3" x="88.24" y="88.24" width="9.8" height="9.8"/><rect x="88.24" y="78.43" width="9.8" height="9.81"/><rect class="cls-3" x="88.24" y="68.63" width="9.8" height="9.8"/><rect class="cls-3" x="88.24" y="58.83" width="9.8" height="9.8"/><rect class="cls-3" x="88.24" y="49.02" width="9.8" height="9.81"/><rect class="cls-3" x="88.24" y="39.22" width="9.8" height="9.8"/><rect class="cls-3" x="88.24" y="29.41" width="9.8" height="9.81"/><rect class="cls-1" x="88.24" y="19.61" width="9.8" height="9.8"/><rect class="cls-1" x="88.24" y="9.81" width="9.8" height="9.8"/><rect class="cls-10" x="78.43" y="156.87" width="9.81" height="9.8"/><rect class="cls-7" x="78.43" y="147.06" width="9.81" height="9.81"/><rect class="cls-7" x="78.43" y="137.26" width="9.81" height="9.8"/><rect class="cls-7" x="78.43" y="127.45" width="9.81" height="9.81"/><rect class="cls-5" x="78.43" y="117.65" width="9.81" height="9.8"/><rect class="cls-11" x="78.43" y="107.85" width="9.81" height="9.8"/><rect class="cls-11" x="78.43" y="98.04" width="9.81" height="9.81"/><rect class="cls-3" x="78.43" y="88.24" width="9.81" height="9.8"/><rect x="78.43" y="78.43" width="9.81" height="9.81"/><rect class="cls-3" x="78.43" y="68.63" width="9.81" height="9.8"/><rect class="cls-3" x="78.43" y="58.83" width="9.81" height="9.8"/><rect class="cls-3" x="78.43" y="49.02" width="9.81" height="9.81"/><rect class="cls-3" x="78.43" y="39.22" width="9.81" height="9.8"/><rect class="cls-1" x="78.43" y="29.41" width="9.81" height="9.81"/><rect class="cls-1" x="78.43" y="19.61" width="9.81" height="9.8"/><rect class="cls-1" x="78.43" y="9.81" width="9.81" height="9.8"/><rect class="cls-2" x="78.43" width="9.81" height="9.81"/><rect class="cls-10" x="68.63" y="156.87" width="9.8" height="9.8"/><rect class="cls-10" x="68.63" y="147.06" width="9.8" height="9.81"/><rect class="cls-10" x="68.63" y="137.26" width="9.8" height="9.8"/><rect class="cls-10" x="68.63" y="127.45" width="9.8" height="9.81"/><rect class="cls-10" x="68.63" y="117.65" width="9.8" height="9.8"/><rect class="cls-5" x="68.63" y="107.85" width="9.8" height="9.8"/><rect class="cls-6" x="68.63" y="98.04" width="9.8" height="9.81"/><rect class="cls-3" x="68.63" y="88.24" width="9.8" height="9.8"/><rect x="68.63" y="78.43" width="9.8" height="9.81"/><rect class="cls-3" x="68.63" y="68.63" width="9.8" height="9.8"/><rect class="cls-3" x="68.63" y="58.83" width="9.8" height="9.8"/><rect class="cls-3" x="68.63" y="49.02" width="9.8" height="9.81"/><rect class="cls-1" x="68.63" y="39.22" width="9.8" height="9.8"/><rect class="cls-1" x="68.63" y="29.41" width="9.8" height="9.81"/><rect class="cls-1" x="68.63" y="19.61" width="9.8" height="9.8"/><rect class="cls-1" x="68.63" y="9.81" width="9.8" height="9.8"/><rect class="cls-2" x="68.63" width="9.8" height="9.81"/><rect class="cls-10" x="58.82" y="156.87" width="9.81" height="9.8"/><rect class="cls-10" x="58.82" y="147.06" width="9.81" height="9.81"/><rect class="cls-10" x="58.82" y="137.26" width="9.81" height="9.8"/><rect class="cls-10" x="58.82" y="127.45" width="9.81" height="9.81"/><rect class="cls-10" x="58.82" y="117.65" width="9.81" height="9.8"/><rect class="cls-10" x="58.82" y="107.85" width="9.81" height="9.8"/><rect class="cls-6" x="58.82" y="98.04" width="9.81" height="9.81"/><rect class="cls-3" x="58.82" y="88.24" width="9.81" height="9.8"/><rect x="58.82" y="78.43" width="9.81" height="9.81"/><rect class="cls-3" x="58.82" y="68.63" width="9.81" height="9.8"/><rect class="cls-3" x="58.82" y="58.83" width="9.81" height="9.8"/><rect class="cls-1" x="58.82" y="49.02" width="9.81" height="9.81"/><rect class="cls-1" x="58.82" y="39.22" width="9.81" height="9.8"/><rect class="cls-1" x="58.82" y="29.41" width="9.81" height="9.81"/><rect class="cls-1" x="58.82" y="19.61" width="9.81" height="9.8"/><rect class="cls-1" x="58.82" y="9.81" width="9.81" height="9.8"/><rect x="49.02" y="156.87" width="9.8" height="9.8"/><rect class="cls-10" x="49.02" y="147.06" width="9.8" height="9.81"/><rect class="cls-10" x="49.02" y="137.26" width="9.8" height="9.8"/><rect class="cls-10" x="49.02" y="127.45" width="9.8" height="9.81"/><rect class="cls-10" x="49.02" y="117.65" width="9.8" height="9.8"/><rect class="cls-10" x="49.02" y="107.85" width="9.8" height="9.8"/><rect class="cls-6" x="49.02" y="98.04" width="9.8" height="9.81"/><rect class="cls-6" x="49.02" y="88.24" width="9.8" height="9.8"/><rect x="49.02" y="78.43" width="9.8" height="9.81"/><rect class="cls-3" x="49.02" y="68.63" width="9.8" height="9.8"/><rect class="cls-1" x="49.02" y="58.83" width="9.8" height="9.8"/><rect class="cls-1" x="49.02" y="49.02" width="9.8" height="9.81"/><rect class="cls-1" x="49.02" y="39.22" width="9.8" height="9.8"/><rect class="cls-1" x="49.02" y="29.41" width="9.8" height="9.81"/><rect class="cls-1" x="49.02" y="19.61" width="9.8" height="9.8"/><rect class="cls-1" x="49.02" y="9.81" width="9.8" height="9.8"/><rect class="cls-2" x="49.02" width="9.8" height="9.81"/><rect class="cls-10" x="39.22" y="147.06" width="9.8" height="9.81"/><rect class="cls-10" x="39.22" y="137.26" width="9.8" height="9.8"/><rect class="cls-10" x="39.22" y="127.45" width="9.8" height="9.81"/><rect class="cls-10" x="39.22" y="117.65" width="9.8" height="9.8"/><rect class="cls-10" x="39.22" y="107.85" width="9.8" height="9.8"/><rect x="39.22" y="98.04" width="9.8" height="9.81"/><rect x="39.22" y="88.24" width="9.8" height="9.8"/><rect x="39.22" y="78.43" width="9.8" height="9.81"/><rect class="cls-3" x="39.22" y="68.63" width="9.8" height="9.8"/><rect class="cls-1" x="39.22" y="58.83" width="9.8" height="9.8"/><rect class="cls-1" x="39.22" y="49.02" width="9.8" height="9.81"/><rect class="cls-1" x="39.22" y="39.22" width="9.8" height="9.8"/><rect class="cls-1" x="39.22" y="29.41" width="9.8" height="9.81"/><rect class="cls-1" x="39.22" y="19.61" width="9.8" height="9.8"/><rect class="cls-1" x="39.22" y="9.81" width="9.8" height="9.8"/><rect class="cls-2" x="39.22" width="9.8" height="9.81"/><rect class="cls-10" x="29.41" y="147.06" width="9.81" height="9.81"/><rect class="cls-10" x="29.41" y="137.26" width="9.81" height="9.8"/><rect class="cls-10" x="29.41" y="127.45" width="9.81" height="9.81"/><rect class="cls-10" x="29.41" y="117.65" width="9.81" height="9.8"/><rect class="cls-10" x="29.41" y="107.85" width="9.81" height="9.8"/><rect class="cls-10" x="29.41" y="98.04" width="9.81" height="9.81"/><rect x="29.41" y="88.24" width="9.81" height="9.8"/><rect x="29.41" y="78.43" width="9.81" height="9.81"/><rect class="cls-1" x="29.41" y="9.81" width="9.81" height="9.8"/><rect class="cls-2" x="29.41" width="9.81" height="9.81"/><rect class="cls-10" x="19.61" y="137.26" width="9.8" height="9.8"/><rect class="cls-10" x="19.61" y="127.45" width="9.8" height="9.81"/><rect class="cls-10" x="19.61" y="117.65" width="9.8" height="9.8"/><rect class="cls-10" x="19.61" y="107.85" width="9.8" height="9.8"/><rect class="cls-10" x="19.61" y="98.04" width="9.8" height="9.81"/><rect class="cls-10" x="9.8" y="127.45" width="9.81" height="9.81"/><rect class="cls-10" x="9.8" y="117.65" width="9.81" height="9.8"/><rect class="cls-10" x="9.8" y="107.85" width="9.81" height="9.8"/><rect class="cls-10" x="9.8" y="98.04" width="9.81" height="9.81"/><rect class="cls-10" x="9.8" y="88.24" width="9.81" height="9.8"/><rect class="cls-10" y="107.85" width="9.8" height="9.8"/><rect class="cls-10" y="98.04" width="9.8" height="9.81"/><rect class="cls-10" y="88.24" width="9.8" height="9.8"/><rect class="cls-10" y="78.43" width="9.8" height="9.81"/><rect class="cls-10" y="68.63" width="9.8" height="9.8"/></g></g></svg>