<svg xmlns="http://www.w3.org/2000/svg" viewBox="0 0 146.76 166.67"><defs><style>.cls-1{fill:#3f3f3f;}.cls-2{fill:#828282;}.cls-3{fill:#d8a956;}.cls-4{fill:#d8c47b;}.cls-5{fill:#4d4b45;}.cls-6{fill:#66522e;}.cls-7{fill:#c1c1c1;}.cls-8{fill:#ffe400;}.cls-9{fill:#4c4c4c;}.cls-10{fill:#fff;}</style></defs><title>upatk2_1</title><g id="Layer_2" data-name="Layer 2"><g id="Layer_1-2" data-name="Layer 1"><rect class="cls-1" x="136.98" y="29.41" width="9.78" height="9.8"/><rect class="cls-2" x="127.2" y="19.6" width="9.78" height="9.81"/><rect x="117.41" y="127.46" width="9.79" height="9.8"/><rect x="117.41" y="117.65" width="9.79" height="9.81"/><rect x="117.41" y="107.85" width="9.79" height="9.8"/><rect x="117.41" y="98.05" width="9.79" height="9.8"/><rect x="117.41" y="88.24" width="9.79" height="9.81"/><rect x="117.41" y="78.43" width="9.79" height="9.8"/><rect class="cls-3" x="117.41" y="68.62" width="9.79" height="9.81"/><rect class="cls-3" x="117.41" y="58.82" width="9.79" height="9.8"/><rect class="cls-3" x="117.41" y="49.02" width="9.79" height="9.8"/><rect class="cls-4" x="117.41" y="39.21" width="9.79" height="9.81"/><rect class="cls-4" x="117.41" y="29.41" width="9.79" height="9.8"/><rect class="cls-1" x="117.41" y="19.6" width="9.79" height="9.81"/><rect class="cls-2" x="117.41" y="9.8" width="9.79" height="9.8"/><rect x="107.63" y="156.87" width="9.78" height="9.8"/><rect x="107.63" y="147.07" width="9.78" height="9.8"/><rect x="107.63" y="137.26" width="9.78" height="9.81"/><rect x="107.63" y="127.46" width="9.78" height="9.8"/><rect x="107.63" y="117.65" width="9.78" height="9.81"/><rect x="107.63" y="107.85" width="9.78" height="9.8"/><rect class="cls-5" x="107.63" y="98.05" width="9.78" height="9.8"/><rect x="107.63" y="88.24" width="9.78" height="9.81"/><rect x="107.63" y="78.43" width="9.78" height="9.8"/><rect class="cls-3" x="107.63" y="68.62" width="9.78" height="9.81"/><rect class="cls-3" x="107.63" y="58.82" width="9.78" height="9.8"/><rect x="107.63" y="49.02" width="9.78" height="9.8"/><rect x="107.63" y="39.21" width="9.78" height="9.81"/><rect class="cls-4" x="107.63" y="29.41" width="9.78" height="9.8"/><rect class="cls-1" x="107.63" y="19.6" width="9.78" height="9.81"/><rect class="cls-2" x="107.63" y="9.8" width="9.78" height="9.8"/><rect class="cls-2" x="107.63" width="9.78" height="9.8"/><rect x="97.84" y="127.46" width="9.79" height="9.8"/><rect x="97.84" y="117.65" width="9.79" height="9.81"/><rect class="cls-6" x="97.84" y="107.85" width="9.79" height="9.8"/><rect x="97.84" y="98.05" width="9.79" height="9.8"/><rect class="cls-3" x="97.84" y="88.24" width="9.79" height="9.81"/><rect x="97.84" y="78.43" width="9.79" height="9.8"/><rect class="cls-3" x="97.84" y="68.62" width="9.79" height="9.81"/><rect class="cls-3" x="97.84" y="58.82" width="9.79" height="9.8"/><rect class="cls-3" x="97.84" y="49.02" width="9.79" height="9.8"/><rect class="cls-3" x="97.84" y="39.21" width="9.79" height="9.81"/><rect class="cls-4" x="97.84" y="29.41" width="9.79" height="9.8"/><rect class="cls-1" x="97.84" y="19.6" width="9.79" height="9.81"/><rect class="cls-1" x="97.84" y="9.8" width="9.79" height="9.8"/><rect class="cls-2" x="97.84" width="9.79" height="9.8"/><rect class="cls-5" x="88.06" y="127.46" width="9.78" height="9.8"/><rect class="cls-5" x="88.06" y="117.65" width="9.78" height="9.81"/><rect class="cls-6" x="88.06" y="107.85" width="9.78" height="9.8"/><rect class="cls-3" x="88.06" y="98.05" width="9.78" height="9.8"/><rect class="cls-3" x="88.06" y="88.24" width="9.78" height="9.81"/><rect x="88.06" y="78.43" width="9.78" height="9.8"/><rect class="cls-3" x="88.06" y="68.62" width="9.78" height="9.81"/><rect class="cls-3" x="88.06" y="58.82" width="9.78" height="9.8"/><rect class="cls-3" x="88.06" y="49.02" width="9.78" height="9.8"/><rect class="cls-3" x="88.06" y="39.21" width="9.78" height="9.81"/><rect class="cls-3" x="88.06" y="29.41" width="9.78" height="9.8"/><rect class="cls-1" x="88.06" y="19.6" width="9.78" height="9.81"/><rect class="cls-1" x="88.06" y="9.8" width="9.78" height="9.8"/><rect class="cls-5" x="78.28" y="127.46" width="9.78" height="9.8"/><rect class="cls-7" x="78.28" y="117.65" width="9.78" height="9.81"/><rect class="cls-8" x="78.28" y="107.85" width="9.78" height="9.8"/><rect class="cls-6" x="78.28" y="98.05" width="9.78" height="9.8"/><rect class="cls-6" x="78.28" y="88.24" width="9.78" height="9.81"/><rect x="78.28" y="78.43" width="9.78" height="9.8"/><rect class="cls-3" x="78.28" y="68.62" width="9.78" height="9.81"/><rect class="cls-3" x="78.28" y="58.82" width="9.78" height="9.8"/><rect class="cls-3" x="78.28" y="49.02" width="9.78" height="9.8"/><rect class="cls-3" x="78.28" y="39.21" width="9.78" height="9.81"/><rect class="cls-1" x="78.28" y="29.41" width="9.78" height="9.8"/><rect class="cls-1" x="78.28" y="19.6" width="9.78" height="9.81"/><rect class="cls-1" x="78.28" y="9.8" width="9.78" height="9.8"/><rect class="cls-2" x="78.28" width="9.78" height="9.8"/><rect class="cls-7" x="68.49" y="127.46" width="9.79" height="9.8"/><rect class="cls-9" x="68.49" y="117.65" width="9.79" height="9.81"/><rect class="cls-7" x="68.49" y="107.85" width="9.79" height="9.8"/><rect class="cls-5" x="68.49" y="98.05" width="9.79" height="9.8"/><rect class="cls-3" x="68.49" y="88.24" width="9.79" height="9.81"/><rect x="68.49" y="78.43" width="9.79" height="9.8"/><rect class="cls-3" x="68.49" y="68.62" width="9.79" height="9.81"/><rect class="cls-3" x="68.49" y="58.82" width="9.79" height="9.8"/><rect class="cls-3" x="68.49" y="49.02" width="9.79" height="9.8"/><rect class="cls-1" x="68.49" y="39.21" width="9.79" height="9.81"/><rect class="cls-1" x="68.49" y="29.41" width="9.79" height="9.8"/><rect class="cls-1" x="68.49" y="19.6" width="9.79" height="9.81"/><rect class="cls-1" x="68.49" y="9.8" width="9.79" height="9.8"/><rect class="cls-2" x="68.49" width="9.79" height="9.8"/><rect class="cls-7" x="58.71" y="137.26" width="9.78" height="9.81"/><rect class="cls-9" x="58.71" y="127.46" width="9.78" height="9.8"/><rect class="cls-7" x="58.71" y="117.65" width="9.78" height="9.81"/><rect class="cls-10" x="58.71" y="107.85" width="9.78" height="9.8"/><rect class="cls-5" x="58.71" y="98.05" width="9.78" height="9.8"/><rect class="cls-3" x="58.71" y="88.24" width="9.78" height="9.81"/><rect x="58.71" y="78.43" width="9.78" height="9.8"/><rect class="cls-3" x="58.71" y="68.62" width="9.78" height="9.81"/><rect class="cls-3" x="58.71" y="58.82" width="9.78" height="9.8"/><rect class="cls-1" x="58.71" y="49.02" width="9.78" height="9.8"/><rect class="cls-1" x="58.71" y="39.21" width="9.78" height="9.81"/><rect class="cls-1" x="58.71" y="29.41" width="9.78" height="9.8"/><rect class="cls-1" x="58.71" y="19.6" width="9.78" height="9.81"/><rect class="cls-1" x="58.71" y="9.8" width="9.78" height="9.8"/><rect x="48.92" y="156.87" width="9.79" height="9.8"/><rect class="cls-7" x="48.92" y="147.07" width="9.79" height="9.8"/><rect class="cls-9" x="48.92" y="137.26" width="9.79" height="9.81"/><rect class="cls-7" x="48.92" y="127.46" width="9.79" height="9.8"/><rect class="cls-10" x="48.92" y="117.65" width="9.79" height="9.81"/><rect class="cls-10" x="48.92" y="107.85" width="9.79" height="9.8"/><rect class="cls-5" x="48.92" y="98.05" width="9.79" height="9.8"/><rect class="cls-5" x="48.92" y="88.24" width="9.79" height="9.81"/><rect x="48.92" y="78.43" width="9.79" height="9.8"/><rect class="cls-3" x="48.92" y="68.62" width="9.79" height="9.81"/><rect class="cls-1" x="48.92" y="58.82" width="9.79" height="9.8"/><rect class="cls-1" x="48.92" y="49.02" width="9.79" height="9.8"/><rect class="cls-1" x="48.92" y="39.21" width="9.79" height="9.81"/><rect class="cls-1" x="48.92" y="29.41" width="9.79" height="9.8"/><rect class="cls-1" x="48.92" y="19.6" width="9.79" height="9.81"/><rect class="cls-1" x="48.92" y="9.8" width="9.79" height="9.8"/><rect class="cls-2" x="48.92" width="9.79" height="9.8"/><rect class="cls-7" x="39.14" y="147.07" width="9.78" height="9.8"/><rect class="cls-9" x="39.14" y="137.26" width="9.78" height="9.81"/><rect class="cls-7" x="39.14" y="127.46" width="9.78" height="9.8"/><rect class="cls-10" x="39.14" y="117.65" width="9.78" height="9.81"/><rect class="cls-10" x="39.14" y="107.85" width="9.78" height="9.8"/><rect x="39.14" y="98.05" width="9.78" height="9.8"/><rect x="39.14" y="88.24" width="9.78" height="9.81"/><rect x="39.14" y="78.43" width="9.78" height="9.8"/><rect class="cls-3" x="39.14" y="68.62" width="9.78" height="9.81"/><rect class="cls-1" x="39.14" y="58.82" width="9.78" height="9.8"/><rect class="cls-1" x="39.14" y="49.02" width="9.78" height="9.8"/><rect class="cls-1" x="39.14" y="39.21" width="9.78" height="9.81"/><rect class="cls-1" x="39.14" y="29.41" width="9.78" height="9.8"/><rect class="cls-1" x="39.14" y="19.6" width="9.78" height="9.81"/><rect class="cls-1" x="39.14" y="9.8" width="9.78" height="9.8"/><rect class="cls-2" x="39.14" width="9.78" height="9.8"/><rect class="cls-7" x="29.36" y="137.26" width="9.78" height="9.81"/><rect class="cls-7" x="29.36" y="127.46" width="9.78" height="9.8"/><rect class="cls-10" x="29.36" y="117.65" width="9.78" height="9.81"/><rect class="cls-10" x="29.36" y="107.85" width="9.78" height="9.8"/><rect class="cls-10" x="29.36" y="98.05" width="9.78" height="9.8"/><rect x="29.36" y="88.24" width="9.78" height="9.81"/><rect x="29.36" y="78.43" width="9.78" height="9.8"/><rect class="cls-10" x="29.36" y="29.41" width="9.78" height="9.8"/><rect class="cls-10" x="29.36" y="19.6" width="9.78" height="9.81"/><rect class="cls-1" x="29.36" y="9.8" width="9.78" height="9.8"/><rect class="cls-2" x="29.36" width="9.78" height="9.8"/><rect class="cls-10" x="19.57" y="137.26" width="9.79" height="9.81"/><rect class="cls-10" x="19.57" y="127.46" width="9.79" height="9.8"/><rect class="cls-10" x="19.57" y="117.65" width="9.79" height="9.81"/><rect class="cls-10" x="19.57" y="107.85" width="9.79" height="9.8"/><rect class="cls-10" x="19.57" y="98.05" width="9.79" height="9.8"/><rect class="cls-10" x="19.57" y="39.21" width="9.79" height="9.81"/><rect class="cls-10" x="19.57" y="29.41" width="9.79" height="9.8"/><rect class="cls-10" x="9.79" y="127.46" width="9.78" height="9.8"/><rect class="cls-10" x="9.79" y="117.65" width="9.78" height="9.81"/><rect class="cls-10" x="9.79" y="107.85" width="9.78" height="9.8"/><rect class="cls-10" x="9.79" y="98.05" width="9.78" height="9.8"/><rect class="cls-10" x="9.79" y="88.24" width="9.78" height="9.81"/><rect class="cls-10" x="9.79" y="58.82" width="9.78" height="9.8"/><rect class="cls-10" x="9.79" y="49.02" width="9.78" height="9.8"/><rect class="cls-10" x="9.79" y="39.21" width="9.78" height="9.81"/><rect class="cls-10" y="107.85" width="9.79" height="9.8"/><rect class="cls-10" y="98.05" width="9.79" height="9.8"/><rect class="cls-10" y="88.24" width="9.79" height="9.81"/><rect class="cls-10" y="78.43" width="9.79" height="9.8"/><rect class="cls-10" y="68.62" width="9.79" height="9.81"/><rect class="cls-10" y="58.82" width="9.79" height="9.8"/></g></g></svg>