<svg xmlns="http://www.w3.org/2000/svg" viewBox="0 0 500 127.45"><defs><style>.cls-1{fill:#c49a6c;}.cls-2{fill:#827068;}.cls-3{fill:#9b8579;}.cls-4{fill:#71a642;}.cls-5{fill:#8dc63f;}.cls-6{fill:#a97c50;}.cls-7{fill:#7dbd42;}</style></defs><g id="Layer_2" data-name="Layer 2"><g id="ground"><rect class="cls-1" x="490.2" y="117.65" width="9.8" height="9.8"/><rect class="cls-2" x="490.2" y="107.84" width="9.8" height="9.81"/><rect class="cls-3" x="490.2" y="98.04" width="9.8" height="9.8"/><rect class="cls-4" x="490.2" y="88.23" width="9.8" height="9.81"/><rect class="cls-5" x="490.2" y="78.43" width="9.8" height="9.8"/><rect class="cls-5" x="490.2" y="68.63" width="9.8" height="9.8"/><rect class="cls-5" x="490.2" y="58.82" width="9.8" height="9.81"/><rect class="cls-5" x="490.2" y="49.02" width="9.8" height="9.8"/><rect class="cls-5" x="490.2" y="39.21" width="9.8" height="9.81"/><rect class="cls-5" x="490.2" y="29.41" width="9.8" height="9.8"/><rect class="cls-5" x="490.2" y="19.61" width="9.8" height="9.8"/><rect class="cls-1" x="480.39" y="117.65" width="9.81" height="9.8"/><rect class="cls-1" x="480.39" y="107.84" width="9.81" height="9.81"/><rect class="cls-3" x="480.39" y="98.04" width="9.81" height="9.8"/><rect class="cls-3" x="480.39" y="88.23" width="9.81" height="9.81"/><rect class="cls-5" x="480.39" y="78.43" width="9.81" height="9.8"/><rect class="cls-5" x="480.39" y="68.63" width="9.81" height="9.8"/><rect class="cls-5" x="480.39" y="58.82" width="9.81" height="9.81"/><rect class="cls-5" x="480.39" y="49.02" width="9.81" height="9.8"/><rect class="cls-5" x="480.39" y="39.21" width="9.81" height="9.81"/><rect class="cls-5" x="480.39" y="29.41" width="9.81" height="9.8"/><rect class="cls-5" x="480.39" y="19.61" width="9.81" height="9.8"/><rect class="cls-5" x="480.39" y="9.8" width="9.81" height="9.81"/><rect class="cls-1" x="470.59" y="117.65" width="9.8" height="9.8"/><rect class="cls-1" x="470.59" y="107.84" width="9.8" height="9.81"/><rect class="cls-1" x="470.59" y="98.04" width="9.8" height="9.8"/><rect class="cls-1" x="470.59" y="88.23" width="9.8" height="9.81"/><rect class="cls-6" x="470.59" y="78.43" width="9.8" height="9.8"/><rect class="cls-6" x="470.59" y="68.63" width="9.8" height="9.8"/><rect class="cls-4" x="470.59" y="58.82" width="9.8" height="9.81"/><rect class="cls-5" x="470.59" y="49.02" width="9.8" height="9.8"/><rect class="cls-5" x="470.59" y="39.21" width="9.8" height="9.81"/><rect class="cls-5" x="470.59" y="29.41" width="9.8" height="9.8"/><rect class="cls-5" x="470.59" y="19.61" width="9.8" height="9.8"/><rect class="cls-5" x="470.59" width="9.8" height="9.8"/><rect class="cls-1" x="460.78" y="117.65" width="9.81" height="9.8"/><rect class="cls-6" x="460.78" y="107.84" width="9.81" height="9.81"/><rect class="cls-6" x="460.78" y="98.04" width="9.81" height="9.8"/><rect class="cls-6" x="460.78" y="88.23" width="9.81" height="9.81"/><rect class="cls-6" x="460.78" y="78.43" width="9.81" height="9.8"/><rect class="cls-4" x="460.78" y="68.63" width="9.81" height="9.8"/><rect class="cls-5" x="460.78" y="58.82" width="9.81" height="9.81"/><rect class="cls-5" x="460.78" y="49.02" width="9.81" height="9.8"/><rect class="cls-5" x="460.78" y="39.21" width="9.81" height="9.81"/><rect class="cls-5" x="460.78" y="29.41" width="9.81" height="9.8"/><rect class="cls-1" x="450.98" y="117.65" width="9.8" height="9.8"/><rect class="cls-1" x="450.98" y="107.84" width="9.8" height="9.81"/><rect class="cls-4" x="450.98" y="98.04" width="9.8" height="9.8"/><rect class="cls-4" x="450.98" y="88.23" width="9.8" height="9.81"/><rect class="cls-5" x="450.98" y="78.43" width="9.8" height="9.8"/><rect class="cls-5" x="450.98" y="68.63" width="9.8" height="9.8"/><rect class="cls-5" x="450.98" y="58.82" width="9.8" height="9.81"/><rect class="cls-5" x="450.98" y="49.02" width="9.8" height="9.8"/><rect class="cls-5" x="450.98" y="39.21" width="9.8" height="9.81"/><rect class="cls-5" x="450.98" y="29.41" width="9.8" height="9.8"/><rect class="cls-1" x="441.18" y="117.65" width="9.8" height="9.8"/><rect class="cls-1" x="441.18" y="107.84" width="9.8" height="9.81"/><rect class="cls-1" x="441.18" y="98.04" width="9.8" height="9.8"/><rect class="cls-1" x="441.18" y="88.23" width="9.8" height="9.81"/><rect class="cls-7" x="441.18" y="78.43" width="9.8" height="9.8"/><rect class="cls-5" x="441.18" y="68.63" width="9.8" height="9.8"/><rect class="cls-5" x="441.18" y="58.82" width="9.8" height="9.81"/><rect class="cls-5" x="441.18" y="49.02" width="9.8" height="9.8"/><rect class="cls-4" x="441.18" y="39.21" width="9.8" height="9.81"/><rect class="cls-5" x="441.18" y="29.41" width="9.8" height="9.8"/><rect class="cls-1" x="431.37" y="117.65" width="9.81" height="9.8"/><rect class="cls-1" x="431.37" y="107.84" width="9.81" height="9.81"/><rect class="cls-1" x="431.37" y="98.04" width="9.81" height="9.8"/><rect class="cls-7" x="431.37" y="88.23" width="9.81" height="9.81"/><rect class="cls-7" x="431.37" y="78.43" width="9.81" height="9.8"/><rect class="cls-7" x="431.37" y="68.63" width="9.81" height="9.8"/><rect class="cls-5" x="431.37" y="58.82" width="9.81" height="9.81"/><rect class="cls-4" x="431.37" y="49.02" width="9.81" height="9.8"/><rect class="cls-5" x="431.37" y="39.21" width="9.81" height="9.81"/><rect class="cls-5" x="431.37" y="29.41" width="9.81" height="9.8"/><rect class="cls-1" x="421.57" y="117.65" width="9.8" height="9.8"/><rect class="cls-1" x="421.57" y="107.84" width="9.8" height="9.81"/><rect class="cls-6" x="421.57" y="98.04" width="9.8" height="9.8"/><rect class="cls-1" x="421.57" y="88.23" width="9.8" height="9.81"/><rect class="cls-1" x="421.57" y="78.43" width="9.8" height="9.8"/><rect class="cls-7" x="421.57" y="68.63" width="9.8" height="9.8"/><rect class="cls-5" x="421.57" y="58.82" width="9.8" height="9.81"/><rect class="cls-5" x="421.57" y="49.02" width="9.8" height="9.8"/><rect class="cls-4" x="421.57" y="39.21" width="9.8" height="9.81"/><rect class="cls-5" x="421.57" y="29.41" width="9.8" height="9.8"/><rect class="cls-1" x="411.76" y="117.65" width="9.81" height="9.8"/><rect class="cls-1" x="411.76" y="107.84" width="9.81" height="9.81"/><rect class="cls-1" x="411.76" y="98.04" width="9.81" height="9.8"/><rect class="cls-6" x="411.76" y="88.23" width="9.81" height="9.81"/><rect class="cls-1" x="411.76" y="78.43" width="9.81" height="9.8"/><rect class="cls-6" x="411.76" y="68.63" width="9.81" height="9.8"/><rect class="cls-6" x="411.76" y="58.82" width="9.81" height="9.81"/><rect class="cls-5" x="411.76" y="49.02" width="9.81" height="9.8"/><rect class="cls-5" x="411.76" y="39.21" width="9.81" height="9.81"/><rect class="cls-5" x="411.76" y="29.41" width="9.81" height="9.8"/><rect class="cls-2" x="401.96" y="117.65" width="9.8" height="9.8"/><rect class="cls-1" x="401.96" y="107.84" width="9.8" height="9.81"/><rect class="cls-1" x="401.96" y="98.04" width="9.8" height="9.8"/><rect class="cls-4" x="401.96" y="88.23" width="9.8" height="9.81"/><rect class="cls-6" x="401.96" y="78.43" width="9.8" height="9.8"/><rect class="cls-4" x="401.96" y="68.63" width="9.8" height="9.8"/><rect class="cls-5" x="401.96" y="58.82" width="9.8" height="9.81"/><rect class="cls-5" x="401.96" y="49.02" width="9.8" height="9.8"/><rect class="cls-5" x="401.96" y="39.21" width="9.8" height="9.81"/><rect class="cls-5" x="401.96" y="29.41" width="9.8" height="9.8"/><rect class="cls-3" x="392.16" y="117.65" width="9.8" height="9.8"/><rect class="cls-3" x="392.16" y="107.84" width="9.8" height="9.81"/><rect class="cls-1" x="392.16" y="98.04" width="9.8" height="9.8"/><rect class="cls-1" x="392.16" y="88.23" width="9.8" height="9.81"/><rect class="cls-5" x="392.16" y="78.43" width="9.8" height="9.8"/><rect class="cls-5" x="392.16" y="68.63" width="9.8" height="9.8"/><rect class="cls-5" x="392.16" y="58.82" width="9.8" height="9.81"/><rect class="cls-5" x="392.16" y="49.02" width="9.8" height="9.8"/><rect class="cls-5" x="392.16" y="39.21" width="9.8" height="9.81"/><rect class="cls-5" x="392.16" y="29.41" width="9.8" height="9.8"/><rect class="cls-3" x="382.35" y="117.65" width="9.81" height="9.8"/><rect class="cls-3" x="382.35" y="107.84" width="9.81" height="9.81"/><rect class="cls-1" x="382.35" y="98.04" width="9.81" height="9.8"/><rect class="cls-1" x="382.35" y="88.23" width="9.81" height="9.81"/><rect class="cls-7" x="382.35" y="78.43" width="9.81" height="9.8"/><rect class="cls-5" x="382.35" y="68.63" width="9.81" height="9.8"/><rect class="cls-5" x="382.35" y="58.82" width="9.81" height="9.81"/><rect class="cls-5" x="382.35" y="49.02" width="9.81" height="9.8"/><rect class="cls-5" x="382.35" y="39.21" width="9.81" height="9.81"/><rect class="cls-5" x="382.35" y="29.41" width="9.81" height="9.8"/><rect class="cls-5" x="382.35" y="9.8" width="9.81" height="9.81"/><rect class="cls-1" x="372.55" y="117.65" width="9.8" height="9.8"/><rect class="cls-1" x="372.55" y="107.84" width="9.8" height="9.81"/><rect class="cls-1" x="372.55" y="98.04" width="9.8" height="9.8"/><rect class="cls-7" x="372.55" y="88.23" width="9.8" height="9.81"/><rect class="cls-7" x="372.55" y="78.43" width="9.8" height="9.8"/><rect class="cls-7" x="372.55" y="68.63" width="9.8" height="9.8"/><rect class="cls-5" x="372.55" y="58.82" width="9.8" height="9.81"/><rect class="cls-5" x="372.55" y="49.02" width="9.8" height="9.8"/><rect class="cls-5" x="372.55" y="39.21" width="9.8" height="9.81"/><rect class="cls-5" x="372.55" y="29.41" width="9.8" height="9.8"/><rect class="cls-5" x="372.55" y="19.61" width="9.8" height="9.8"/><rect class="cls-1" x="362.75" y="117.65" width="9.8" height="9.8"/><rect class="cls-1" x="362.75" y="107.84" width="9.8" height="9.81"/><rect class="cls-7" x="362.75" y="98.04" width="9.8" height="9.8"/><rect class="cls-1" x="362.75" y="88.23" width="9.8" height="9.81"/><rect class="cls-6" x="362.75" y="78.43" width="9.8" height="9.8"/><rect class="cls-7" x="362.75" y="68.63" width="9.8" height="9.8"/><rect class="cls-5" x="362.75" y="58.82" width="9.8" height="9.81"/><rect class="cls-5" x="362.75" y="49.02" width="9.8" height="9.8"/><rect class="cls-5" x="362.75" y="39.21" width="9.8" height="9.81"/><rect class="cls-5" x="362.75" y="29.41" width="9.8" height="9.8"/><rect class="cls-5" x="362.75" y="9.8" width="9.8" height="9.81"/><rect class="cls-1" x="352.94" y="117.65" width="9.81" height="9.8"/><rect class="cls-1" x="352.94" y="107.84" width="9.81" height="9.81"/><rect class="cls-1" x="352.94" y="98.04" width="9.81" height="9.8"/><rect class="cls-6" x="352.94" y="88.23" width="9.81" height="9.81"/><rect class="cls-4" x="352.94" y="78.43" width="9.81" height="9.8"/><rect class="cls-5" x="352.94" y="68.63" width="9.81" height="9.8"/><rect class="cls-5" x="352.94" y="58.82" width="9.81" height="9.81"/><rect class="cls-5" x="352.94" y="49.02" width="9.81" height="9.8"/><rect class="cls-5" x="352.94" y="39.21" width="9.81" height="9.81"/><rect class="cls-5" x="352.94" y="29.41" width="9.81" height="9.8"/><rect class="cls-1" x="343.14" y="117.65" width="9.8" height="9.8"/><rect class="cls-1" x="343.14" y="107.84" width="9.8" height="9.81"/><rect class="cls-1" x="343.14" y="98.04" width="9.8" height="9.8"/><rect class="cls-1" x="343.14" y="88.23" width="9.8" height="9.81"/><rect class="cls-1" x="343.14" y="78.43" width="9.8" height="9.8"/><rect class="cls-1" x="343.14" y="68.63" width="9.8" height="9.8"/><rect class="cls-5" x="343.14" y="58.82" width="9.8" height="9.81"/><rect class="cls-4" x="343.14" y="49.02" width="9.8" height="9.8"/><rect class="cls-5" x="343.14" y="39.21" width="9.8" height="9.81"/><rect class="cls-5" x="343.14" y="29.41" width="9.8" height="9.8"/><rect class="cls-1" x="333.33" y="117.65" width="9.81" height="9.8"/><rect class="cls-1" x="333.33" y="107.84" width="9.81" height="9.81"/><rect class="cls-1" x="333.33" y="98.04" width="9.81" height="9.8"/><rect class="cls-6" x="333.33" y="88.23" width="9.81" height="9.81"/><rect class="cls-1" x="333.33" y="78.43" width="9.81" height="9.8"/><rect class="cls-6" x="333.33" y="68.63" width="9.81" height="9.8"/><rect class="cls-5" x="333.33" y="58.82" width="9.81" height="9.81"/><rect class="cls-5" x="333.33" y="49.02" width="9.81" height="9.8"/><rect class="cls-4" x="333.33" y="39.21" width="9.81" height="9.81"/><rect class="cls-5" x="333.33" y="29.41" width="9.81" height="9.8"/><rect class="cls-5" x="333.33" y="19.61" width="9.81" height="9.8"/><rect class="cls-1" x="323.53" y="117.65" width="9.8" height="9.8"/><rect class="cls-1" x="323.53" y="107.84" width="9.8" height="9.81"/><rect class="cls-1" x="323.53" y="98.04" width="9.8" height="9.8"/><rect class="cls-1" x="323.53" y="88.23" width="9.8" height="9.81"/><rect class="cls-6" x="323.53" y="78.43" width="9.8" height="9.8"/><rect class="cls-6" x="323.53" y="68.63" width="9.8" height="9.8"/><rect class="cls-5" x="323.53" y="58.82" width="9.8" height="9.81"/><rect class="cls-4" x="323.53" y="49.02" width="9.8" height="9.8"/><rect class="cls-5" x="323.53" y="39.21" width="9.8" height="9.81"/><rect class="cls-5" x="323.53" y="29.41" width="9.8" height="9.8"/><rect class="cls-1" x="313.73" y="117.65" width="9.8" height="9.8"/><rect class="cls-1" x="313.73" y="107.84" width="9.8" height="9.81"/><rect class="cls-2" x="313.73" y="98.04" width="9.8" height="9.8"/><rect class="cls-2" x="313.73" y="88.23" width="9.8" height="9.81"/><rect class="cls-4" x="313.73" y="78.43" width="9.8" height="9.8"/><rect class="cls-6" x="313.73" y="68.63" width="9.8" height="9.8"/><rect class="cls-5" x="313.73" y="58.82" width="9.8" height="9.81"/><rect class="cls-5" x="313.73" y="49.02" width="9.8" height="9.8"/><rect class="cls-4" x="313.73" y="39.21" width="9.8" height="9.81"/><rect class="cls-5" x="313.73" y="29.41" width="9.8" height="9.8"/><rect class="cls-5" x="313.73" y="19.61" width="9.8" height="9.8"/><rect class="cls-1" x="303.92" y="117.65" width="9.81" height="9.8"/><rect class="cls-1" x="303.92" y="107.84" width="9.81" height="9.81"/><rect class="cls-2" x="303.92" y="98.04" width="9.81" height="9.8"/><rect class="cls-3" x="303.92" y="88.23" width="9.81" height="9.81"/><rect class="cls-3" x="303.92" y="78.43" width="9.81" height="9.8"/><rect class="cls-4" x="303.92" y="68.63" width="9.81" height="9.8"/><rect class="cls-5" x="303.92" y="58.82" width="9.81" height="9.81"/><rect class="cls-5" x="303.92" y="49.02" width="9.81" height="9.8"/><rect class="cls-5" x="303.92" y="39.21" width="9.81" height="9.81"/><rect class="cls-5" x="303.92" y="29.41" width="9.81" height="9.8"/><rect class="cls-5" x="303.92" y="19.61" width="9.81" height="9.8"/><rect class="cls-1" x="294.12" y="117.65" width="9.8" height="9.8"/><rect class="cls-1" x="294.12" y="107.84" width="9.8" height="9.81"/><rect class="cls-1" x="294.12" y="98.04" width="9.8" height="9.8"/><rect class="cls-3" x="294.12" y="88.23" width="9.8" height="9.81"/><rect class="cls-3" x="294.12" y="78.43" width="9.8" height="9.8"/><rect class="cls-5" x="294.12" y="68.63" width="9.8" height="9.8"/><rect class="cls-5" x="294.12" y="58.82" width="9.8" height="9.81"/><rect class="cls-5" x="294.12" y="49.02" width="9.8" height="9.8"/><rect class="cls-5" x="294.12" y="39.21" width="9.8" height="9.81"/><rect class="cls-5" x="294.12" y="29.41" width="9.8" height="9.8"/><rect class="cls-1" x="284.31" y="117.65" width="9.81" height="9.8"/><rect class="cls-1" x="284.31" y="107.84" width="9.81" height="9.81"/><rect class="cls-1" x="284.31" y="98.04" width="9.81" height="9.8"/><rect class="cls-1" x="284.31" y="88.23" width="9.81" height="9.81"/><rect class="cls-6" x="284.31" y="78.43" width="9.81" height="9.8"/><rect class="cls-6" x="284.31" y="68.63" width="9.81" height="9.8"/><rect class="cls-4" x="284.31" y="58.82" width="9.81" height="9.81"/><rect class="cls-5" x="284.31" y="49.02" width="9.81" height="9.8"/><rect class="cls-5" x="284.31" y="39.21" width="9.81" height="9.81"/><rect class="cls-5" x="284.31" y="29.41" width="9.81" height="9.8"/><rect class="cls-1" x="274.51" y="117.65" width="9.8" height="9.8"/><rect class="cls-1" x="274.51" y="107.84" width="9.8" height="9.81"/><rect class="cls-1" x="274.51" y="98.04" width="9.8" height="9.8"/><rect class="cls-1" x="274.51" y="88.23" width="9.8" height="9.81"/><rect class="cls-1" x="274.51" y="78.43" width="9.8" height="9.8"/><rect class="cls-5" x="274.51" y="68.63" width="9.8" height="9.8"/><rect class="cls-5" x="274.51" y="58.82" width="9.8" height="9.81"/><rect class="cls-5" x="274.51" y="49.02" width="9.8" height="9.8"/><rect class="cls-5" x="274.51" y="39.21" width="9.8" height="9.81"/><rect class="cls-5" x="274.51" y="29.41" width="9.8" height="9.8"/><rect class="cls-1" x="264.71" y="117.65" width="9.8" height="9.8"/><rect class="cls-1" x="264.71" y="107.84" width="9.8" height="9.81"/><rect class="cls-1" x="264.71" y="98.04" width="9.8" height="9.8"/><rect class="cls-1" x="264.71" y="88.23" width="9.8" height="9.81"/><rect class="cls-6" x="264.71" y="78.43" width="9.8" height="9.8"/><rect class="cls-6" x="264.71" y="68.63" width="9.8" height="9.8"/><rect class="cls-4" x="264.71" y="58.82" width="9.8" height="9.81"/><rect class="cls-4" x="264.71" y="49.02" width="9.8" height="9.8"/><rect class="cls-5" x="264.71" y="39.21" width="9.8" height="9.81"/><rect class="cls-5" x="264.71" y="29.41" width="9.8" height="9.8"/><rect class="cls-1" x="254.9" y="117.65" width="9.81" height="9.8"/><rect class="cls-1" x="254.9" y="107.84" width="9.81" height="9.81"/><rect class="cls-1" x="254.9" y="98.04" width="9.81" height="9.8"/><rect class="cls-1" x="254.9" y="88.23" width="9.81" height="9.81"/><rect class="cls-1" x="254.9" y="78.43" width="9.81" height="9.8"/><rect class="cls-5" x="254.9" y="68.63" width="9.81" height="9.8"/><rect class="cls-5" x="254.9" y="58.82" width="9.81" height="9.81"/><rect class="cls-5" x="254.9" y="49.02" width="9.81" height="9.8"/><rect class="cls-5" x="254.9" y="39.21" width="9.81" height="9.81"/><rect class="cls-5" x="254.9" y="29.41" width="9.81" height="9.8"/><rect class="cls-1" x="245.1" y="117.65" width="9.8" height="9.8"/><rect class="cls-2" x="245.1" y="107.84" width="9.8" height="9.81"/><rect class="cls-2" x="245.1" y="98.04" width="9.8" height="9.8"/><rect class="cls-1" x="245.1" y="88.23" width="9.8" height="9.81"/><rect class="cls-1" x="245.1" y="78.43" width="9.8" height="9.8"/><rect class="cls-1" x="245.1" y="68.63" width="9.8" height="9.8"/><rect class="cls-6" x="245.1" y="58.82" width="9.8" height="9.81"/><rect class="cls-5" x="245.1" y="49.02" width="9.8" height="9.8"/><rect class="cls-5" x="245.1" y="39.21" width="9.8" height="9.81"/><rect class="cls-5" x="245.1" y="29.41" width="9.8" height="9.8"/><rect class="cls-5" x="245.1" y="19.61" width="9.8" height="9.8"/><rect class="cls-1" x="235.29" y="117.65" width="9.81" height="9.8"/><rect class="cls-2" x="235.29" y="107.84" width="9.81" height="9.81"/><rect class="cls-3" x="235.29" y="98.04" width="9.81" height="9.8"/><rect class="cls-3" x="235.29" y="88.23" width="9.81" height="9.81"/><rect class="cls-7" x="235.29" y="78.43" width="9.81" height="9.8"/><rect class="cls-7" x="235.29" y="68.63" width="9.81" height="9.8"/><rect class="cls-5" x="235.29" y="58.82" width="9.81" height="9.81"/><rect class="cls-5" x="235.29" y="49.02" width="9.81" height="9.8"/><rect class="cls-5" x="235.29" y="39.21" width="9.81" height="9.81"/><rect class="cls-5" x="235.29" y="29.41" width="9.81" height="9.8"/><rect class="cls-1" x="225.49" y="117.65" width="9.8" height="9.8"/><rect class="cls-1" x="225.49" y="107.84" width="9.8" height="9.81"/><rect class="cls-3" x="225.49" y="98.04" width="9.8" height="9.8"/><rect class="cls-3" x="225.49" y="88.23" width="9.8" height="9.81"/><rect class="cls-7" x="225.49" y="78.43" width="9.8" height="9.8"/><rect class="cls-4" x="225.49" y="68.63" width="9.8" height="9.8"/><rect class="cls-5" x="225.49" y="58.82" width="9.8" height="9.81"/><rect class="cls-5" x="225.49" y="49.02" width="9.8" height="9.8"/><rect class="cls-5" x="225.49" y="39.21" width="9.8" height="9.81"/><rect class="cls-5" x="225.49" y="29.41" width="9.8" height="9.8"/><rect class="cls-5" x="225.49" y="9.8" width="9.8" height="9.81"/><rect class="cls-1" x="215.69" y="117.65" width="9.8" height="9.8"/><rect class="cls-1" x="215.69" y="107.84" width="9.8" height="9.81"/><rect class="cls-6" x="215.69" y="98.04" width="9.8" height="9.8"/><rect class="cls-6" x="215.69" y="88.23" width="9.8" height="9.81"/><rect class="cls-4" x="215.69" y="78.43" width="9.8" height="9.8"/><rect class="cls-5" x="215.69" y="68.63" width="9.8" height="9.8"/><rect class="cls-5" x="215.69" y="58.82" width="9.8" height="9.81"/><rect class="cls-5" x="215.69" y="49.02" width="9.8" height="9.8"/><rect class="cls-5" x="215.69" y="39.21" width="9.8" height="9.81"/><rect class="cls-5" x="215.69" y="29.41" width="9.8" height="9.8"/><rect class="cls-5" x="215.69" y="19.61" width="9.8" height="9.8"/><rect class="cls-1" x="205.88" y="117.65" width="9.81" height="9.8"/><rect class="cls-1" x="205.88" y="107.84" width="9.81" height="9.81"/><rect class="cls-1" x="205.88" y="98.04" width="9.81" height="9.8"/><rect class="cls-4" x="205.88" y="88.23" width="9.81" height="9.81"/><rect class="cls-5" x="205.88" y="78.43" width="9.81" height="9.8"/><rect class="cls-5" x="205.88" y="68.63" width="9.81" height="9.8"/><rect class="cls-5" x="205.88" y="58.82" width="9.81" height="9.81"/><rect class="cls-5" x="205.88" y="49.02" width="9.81" height="9.8"/><rect class="cls-5" x="205.88" y="39.21" width="9.81" height="9.81"/><rect class="cls-5" x="205.88" y="29.41" width="9.81" height="9.8"/><rect class="cls-5" x="205.88" y="9.8" width="9.81" height="9.81"/><rect class="cls-1" x="196.08" y="117.65" width="9.8" height="9.8"/><rect class="cls-1" x="196.08" y="107.84" width="9.8" height="9.81"/><rect class="cls-1" x="196.08" y="98.04" width="9.8" height="9.8"/><rect class="cls-1" x="196.08" y="88.23" width="9.8" height="9.81"/><rect class="cls-1" x="196.08" y="78.43" width="9.8" height="9.8"/><rect class="cls-5" x="196.08" y="68.63" width="9.8" height="9.8"/><rect class="cls-5" x="196.08" y="58.82" width="9.8" height="9.81"/><rect class="cls-5" x="196.08" y="49.02" width="9.8" height="9.8"/><rect class="cls-5" x="196.08" y="39.21" width="9.8" height="9.81"/><rect class="cls-5" x="196.08" y="29.41" width="9.8" height="9.8"/><rect class="cls-1" x="186.27" y="117.65" width="9.81" height="9.8"/><rect class="cls-1" x="186.27" y="107.84" width="9.81" height="9.81"/><rect class="cls-1" x="186.27" y="98.04" width="9.81" height="9.8"/><rect class="cls-1" x="186.27" y="88.23" width="9.81" height="9.81"/><rect class="cls-1" x="186.27" y="78.43" width="9.81" height="9.8"/><rect class="cls-6" x="186.27" y="68.63" width="9.81" height="9.8"/><rect class="cls-4" x="186.27" y="58.82" width="9.81" height="9.81"/><rect class="cls-5" x="186.27" y="49.02" width="9.81" height="9.8"/><rect class="cls-5" x="186.27" y="39.21" width="9.81" height="9.81"/><rect class="cls-5" x="186.27" y="29.41" width="9.81" height="9.8"/><rect class="cls-1" x="176.47" y="117.65" width="9.8" height="9.8"/><rect class="cls-1" x="176.47" y="107.84" width="9.8" height="9.81"/><rect class="cls-6" x="176.47" y="98.04" width="9.8" height="9.8"/><rect class="cls-6" x="176.47" y="88.23" width="9.8" height="9.81"/><rect class="cls-6" x="176.47" y="78.43" width="9.8" height="9.8"/><rect class="cls-4" x="176.47" y="68.63" width="9.8" height="9.8"/><rect class="cls-5" x="176.47" y="58.82" width="9.8" height="9.81"/><rect class="cls-5" x="176.47" y="49.02" width="9.8" height="9.8"/><rect class="cls-5" x="176.47" y="39.21" width="9.8" height="9.81"/><rect class="cls-5" x="176.47" y="29.41" width="9.8" height="9.8"/><rect class="cls-2" x="166.67" y="117.65" width="9.8" height="9.8"/><rect class="cls-1" x="166.67" y="107.84" width="9.8" height="9.81"/><rect class="cls-1" x="166.67" y="98.04" width="9.8" height="9.8"/><rect class="cls-4" x="166.67" y="88.23" width="9.8" height="9.81"/><rect class="cls-5" x="166.67" y="78.43" width="9.8" height="9.8"/><rect class="cls-5" x="166.67" y="68.63" width="9.8" height="9.8"/><rect class="cls-5" x="166.67" y="58.82" width="9.8" height="9.81"/><rect class="cls-5" x="166.67" y="49.02" width="9.8" height="9.8"/><rect class="cls-5" x="166.67" y="39.21" width="9.8" height="9.81"/><rect class="cls-5" x="166.67" y="29.41" width="9.8" height="9.8"/><rect class="cls-3" x="156.86" y="117.65" width="9.81" height="9.8"/><rect class="cls-3" x="156.86" y="107.84" width="9.81" height="9.81"/><rect class="cls-1" x="156.86" y="98.04" width="9.81" height="9.8"/><rect class="cls-1" x="156.86" y="88.23" width="9.81" height="9.81"/><rect class="cls-1" x="156.86" y="78.43" width="9.81" height="9.8"/><rect class="cls-6" x="156.86" y="68.63" width="9.81" height="9.8"/><rect class="cls-5" x="156.86" y="58.82" width="9.81" height="9.81"/><rect class="cls-5" x="156.86" y="49.02" width="9.81" height="9.8"/><rect class="cls-5" x="156.86" y="39.21" width="9.81" height="9.81"/><rect class="cls-5" x="156.86" y="29.41" width="9.81" height="9.8"/><rect class="cls-3" x="147.06" y="117.65" width="9.8" height="9.8"/><rect class="cls-3" x="147.06" y="107.84" width="9.8" height="9.81"/><rect class="cls-1" x="147.06" y="98.04" width="9.8" height="9.8"/><rect class="cls-7" x="147.06" y="88.23" width="9.8" height="9.81"/><rect class="cls-7" x="147.06" y="78.43" width="9.8" height="9.8"/><rect class="cls-7" x="147.06" y="68.63" width="9.8" height="9.8"/><rect class="cls-4" x="147.06" y="58.82" width="9.8" height="9.81"/><rect class="cls-5" x="147.06" y="49.02" width="9.8" height="9.8"/><rect class="cls-5" x="147.06" y="39.21" width="9.8" height="9.81"/><rect class="cls-5" x="147.06" y="29.41" width="9.8" height="9.8"/><rect class="cls-1" x="137.25" y="117.65" width="9.81" height="9.8"/><rect class="cls-1" x="137.25" y="107.84" width="9.81" height="9.81"/><rect class="cls-1" x="137.25" y="98.04" width="9.81" height="9.8"/><rect class="cls-1" x="137.25" y="88.23" width="9.81" height="9.81"/><rect class="cls-7" x="137.25" y="78.43" width="9.81" height="9.8"/><rect class="cls-5" x="137.25" y="68.63" width="9.81" height="9.8"/><rect class="cls-5" x="137.25" y="58.82" width="9.81" height="9.81"/><rect class="cls-5" x="137.25" y="49.02" width="9.81" height="9.8"/><rect class="cls-5" x="137.25" y="39.21" width="9.81" height="9.81"/><rect class="cls-5" x="137.25" y="29.41" width="9.81" height="9.8"/><rect class="cls-1" x="127.45" y="117.65" width="9.8" height="9.8"/><rect class="cls-1" x="127.45" y="107.84" width="9.8" height="9.81"/><rect class="cls-1" x="127.45" y="98.04" width="9.8" height="9.8"/><rect class="cls-6" x="127.45" y="88.23" width="9.8" height="9.81"/><rect class="cls-6" x="127.45" y="78.43" width="9.8" height="9.8"/><rect class="cls-7" x="127.45" y="68.63" width="9.8" height="9.8"/><rect class="cls-4" x="127.45" y="58.82" width="9.8" height="9.81"/><rect class="cls-5" x="127.45" y="49.02" width="9.8" height="9.8"/><rect class="cls-5" x="127.45" y="39.21" width="9.8" height="9.81"/><rect class="cls-5" x="127.45" y="29.41" width="9.8" height="9.8"/><rect class="cls-1" x="117.65" y="117.65" width="9.8" height="9.8"/><rect class="cls-1" x="117.65" y="107.84" width="9.8" height="9.81"/><rect class="cls-2" x="117.65" y="98.04" width="9.8" height="9.8"/><rect class="cls-2" x="117.65" y="88.23" width="9.8" height="9.81"/><rect class="cls-4" x="117.65" y="78.43" width="9.8" height="9.8"/><rect class="cls-4" x="117.65" y="68.63" width="9.8" height="9.8"/><rect class="cls-5" x="117.65" y="58.82" width="9.8" height="9.81"/><rect class="cls-5" x="117.65" y="49.02" width="9.8" height="9.8"/><rect class="cls-5" x="117.65" y="39.21" width="9.8" height="9.81"/><rect class="cls-5" x="117.65" y="29.41" width="9.8" height="9.8"/><rect class="cls-1" x="107.84" y="117.65" width="9.81" height="9.8"/><rect class="cls-1" x="107.84" y="107.84" width="9.81" height="9.81"/><rect class="cls-2" x="107.84" y="98.04" width="9.81" height="9.8"/><rect class="cls-3" x="107.84" y="88.23" width="9.81" height="9.81"/><rect class="cls-3" x="107.84" y="78.43" width="9.81" height="9.8"/><rect class="cls-5" x="107.84" y="68.63" width="9.81" height="9.8"/><rect class="cls-5" x="107.84" y="58.82" width="9.81" height="9.81"/><rect class="cls-5" x="107.84" y="49.02" width="9.81" height="9.8"/><rect class="cls-5" x="107.84" y="39.21" width="9.81" height="9.81"/><rect class="cls-5" x="107.84" y="29.41" width="9.81" height="9.8"/><rect class="cls-1" x="98.04" y="117.65" width="9.8" height="9.8"/><rect class="cls-1" x="98.04" y="107.84" width="9.8" height="9.81"/><rect class="cls-6" x="98.04" y="98.04" width="9.8" height="9.8"/><rect class="cls-3" x="98.04" y="88.23" width="9.8" height="9.81"/><rect class="cls-3" x="98.04" y="78.43" width="9.8" height="9.8"/><rect class="cls-5" x="98.04" y="68.63" width="9.8" height="9.8"/><rect class="cls-5" x="98.04" y="58.82" width="9.8" height="9.81"/><rect class="cls-5" x="98.04" y="49.02" width="9.8" height="9.8"/><rect class="cls-5" x="98.04" y="39.21" width="9.8" height="9.81"/><rect class="cls-5" x="98.04" y="29.41" width="9.8" height="9.8"/><rect class="cls-1" x="88.24" y="117.65" width="9.8" height="9.8"/><rect class="cls-1" x="88.24" y="107.84" width="9.8" height="9.81"/><rect class="cls-1" x="88.24" y="98.04" width="9.8" height="9.8"/><rect class="cls-6" x="88.24" y="88.23" width="9.8" height="9.81"/><rect class="cls-6" x="88.24" y="78.43" width="9.8" height="9.8"/><rect class="cls-6" x="88.24" y="68.63" width="9.8" height="9.8"/><rect class="cls-5" x="88.24" y="58.82" width="9.8" height="9.81"/><rect class="cls-5" x="88.24" y="49.02" width="9.8" height="9.8"/><rect class="cls-5" x="88.24" y="39.21" width="9.8" height="9.81"/><rect class="cls-5" x="88.24" y="29.41" width="9.8" height="9.8"/><rect class="cls-1" x="78.43" y="117.65" width="9.81" height="9.8"/><rect class="cls-1" x="78.43" y="107.84" width="9.81" height="9.81"/><rect class="cls-1" x="78.43" y="98.04" width="9.81" height="9.8"/><rect class="cls-5" x="78.43" y="88.23" width="9.81" height="9.81"/><rect class="cls-6" x="78.43" y="78.43" width="9.81" height="9.8"/><rect class="cls-4" x="78.43" y="68.63" width="9.81" height="9.8"/><rect class="cls-5" x="78.43" y="58.82" width="9.81" height="9.81"/><rect class="cls-5" x="78.43" y="49.02" width="9.81" height="9.8"/><rect class="cls-5" x="78.43" y="39.21" width="9.81" height="9.81"/><rect class="cls-5" x="78.43" y="29.41" width="9.81" height="9.8"/><rect class="cls-1" x="68.63" y="117.65" width="9.8" height="9.8"/><rect class="cls-1" x="68.63" y="107.84" width="9.8" height="9.81"/><rect class="cls-1" x="68.63" y="98.04" width="9.8" height="9.8"/><rect class="cls-1" x="68.63" y="88.23" width="9.8" height="9.81"/><rect class="cls-5" x="68.63" y="78.43" width="9.8" height="9.8"/><rect class="cls-5" x="68.63" y="68.63" width="9.8" height="9.8"/><rect class="cls-5" x="68.63" y="58.82" width="9.8" height="9.81"/><rect class="cls-5" x="68.63" y="49.02" width="9.8" height="9.8"/><rect class="cls-5" x="68.63" y="39.21" width="9.8" height="9.81"/><rect class="cls-5" x="68.63" y="29.41" width="9.8" height="9.8"/><rect class="cls-1" x="58.82" y="117.65" width="9.81" height="9.8"/><rect class="cls-1" x="58.82" y="107.84" width="9.81" height="9.81"/><rect class="cls-1" x="58.82" y="98.04" width="9.81" height="9.8"/><rect class="cls-1" x="58.82" y="88.23" width="9.81" height="9.81"/><rect class="cls-6" x="58.82" y="78.43" width="9.81" height="9.8"/><rect class="cls-4" x="58.82" y="68.63" width="9.81" height="9.8"/><rect class="cls-5" x="58.82" y="58.82" width="9.81" height="9.81"/><rect class="cls-5" x="58.82" y="49.02" width="9.81" height="9.8"/><rect class="cls-4" x="58.82" y="39.21" width="9.81" height="9.81"/><rect class="cls-5" x="58.82" y="29.41" width="9.81" height="9.8"/><rect class="cls-1" x="49.02" y="117.65" width="9.8" height="9.8"/><rect class="cls-1" x="49.02" y="107.84" width="9.8" height="9.81"/><rect class="cls-1" x="49.02" y="98.04" width="9.8" height="9.8"/><rect class="cls-6" x="49.02" y="88.23" width="9.8" height="9.81"/><rect class="cls-4" x="49.02" y="78.43" width="9.8" height="9.8"/><rect class="cls-5" x="49.02" y="68.63" width="9.8" height="9.8"/><rect class="cls-5" x="49.02" y="58.82" width="9.8" height="9.81"/><rect class="cls-4" x="49.02" y="49.02" width="9.8" height="9.8"/><rect class="cls-5" x="49.02" y="39.21" width="9.8" height="9.81"/><rect class="cls-5" x="49.02" y="29.41" width="9.8" height="9.8"/><rect class="cls-1" x="39.22" y="117.65" width="9.8" height="9.8"/><rect class="cls-1" x="39.22" y="107.84" width="9.8" height="9.81"/><rect class="cls-6" x="39.22" y="98.04" width="9.8" height="9.8"/><rect class="cls-1" x="39.22" y="88.23" width="9.8" height="9.81"/><rect class="cls-5" x="39.22" y="78.43" width="9.8" height="9.8"/><rect class="cls-5" x="39.22" y="68.63" width="9.8" height="9.8"/><rect class="cls-5" x="39.22" y="58.82" width="9.8" height="9.81"/><rect class="cls-5" x="39.22" y="49.02" width="9.8" height="9.8"/><rect class="cls-4" x="39.22" y="39.21" width="9.8" height="9.81"/><rect class="cls-5" x="39.22" y="29.41" width="9.8" height="9.8"/><rect class="cls-1" x="29.41" y="117.65" width="9.81" height="9.8"/><rect class="cls-2" x="29.41" y="107.84" width="9.81" height="9.81"/><rect class="cls-2" x="29.41" y="98.04" width="9.81" height="9.8"/><rect class="cls-5" x="29.41" y="88.23" width="9.81" height="9.81"/><rect class="cls-1" x="29.41" y="78.43" width="9.81" height="9.8"/><rect class="cls-5" x="29.41" y="68.63" width="9.81" height="9.8"/><rect class="cls-5" x="29.41" y="58.82" width="9.81" height="9.81"/><rect class="cls-5" x="29.41" y="49.02" width="9.81" height="9.8"/><rect class="cls-5" x="29.41" y="39.21" width="9.81" height="9.81"/><rect class="cls-5" x="29.41" y="29.41" width="9.81" height="9.8"/><rect class="cls-5" x="29.41" width="9.81" height="9.8"/><rect class="cls-1" x="19.61" y="117.65" width="9.8" height="9.8"/><rect class="cls-2" x="19.61" y="107.84" width="9.8" height="9.81"/><rect class="cls-3" x="19.61" y="98.04" width="9.8" height="9.8"/><rect class="cls-3" x="19.61" y="88.23" width="9.8" height="9.81"/><rect class="cls-1" x="19.61" y="78.43" width="9.8" height="9.8"/><rect class="cls-6" x="19.61" y="68.63" width="9.8" height="9.8"/><rect class="cls-4" x="19.61" y="58.82" width="9.8" height="9.81"/><rect class="cls-5" x="19.61" y="49.02" width="9.8" height="9.8"/><rect class="cls-5" x="19.61" y="39.21" width="9.8" height="9.81"/><rect class="cls-5" x="19.61" y="29.41" width="9.8" height="9.8"/><rect class="cls-5" x="19.61" y="19.61" width="9.8" height="9.8"/><rect class="cls-5" x="19.61" y="9.8" width="9.8" height="9.81"/><rect class="cls-1" x="9.8" y="117.65" width="9.81" height="9.8"/><rect class="cls-1" x="9.8" y="107.84" width="9.81" height="9.81"/><rect class="cls-3" x="9.8" y="98.04" width="9.81" height="9.8"/><rect class="cls-3" x="9.8" y="88.23" width="9.81" height="9.81"/><rect class="cls-6" x="9.8" y="78.43" width="9.81" height="9.8"/><rect class="cls-4" x="9.8" y="68.63" width="9.81" height="9.8"/><rect class="cls-5" x="9.8" y="58.82" width="9.81" height="9.81"/><rect class="cls-5" x="9.8" y="49.02" width="9.81" height="9.8"/><rect class="cls-5" x="9.8" y="39.21" width="9.81" height="9.81"/><rect class="cls-5" x="9.8" y="29.41" width="9.81" height="9.8"/><rect class="cls-5" x="9.8" y="19.61" width="9.81" height="9.8"/><rect class="cls-5" x="9.8" width="9.81" height="9.8"/><rect class="cls-1" y="117.65" width="9.8" height="9.8"/><rect class="cls-1" y="107.84" width="9.8" height="9.81"/><rect class="cls-1" y="98.04" width="9.8" height="9.8"/><rect class="cls-6" y="88.23" width="9.8" height="9.81"/><rect class="cls-4" y="78.43" width="9.8" height="9.8"/><rect class="cls-5" y="68.63" width="9.8" height="9.8"/><rect class="cls-5" y="58.82" width="9.8" height="9.81"/><rect class="cls-5" y="49.02" width="9.8" height="9.8"/><rect class="cls-5" y="39.21" width="9.8" height="9.81"/><rect class="cls-5" y="29.41" width="9.8" height="9.8"/></g></g></svg>