<svg xmlns="http://www.w3.org/2000/svg" viewBox="0 0 235.29 88.24"><defs><style>.cls-1{fill:#d4def1;}.cls-2{fill:#b5c8e8;}</style></defs><g id="Layer_2" data-name="Layer 2"><g id="Layer_5" data-name="Layer 5"><rect class="cls-1" x="225.49" y="78.43" width="9.8" height="9.81"/><rect class="cls-1" x="215.68" y="78.43" width="9.81" height="9.81"/><rect class="cls-2" x="205.88" y="78.43" width="9.8" height="9.81"/><rect class="cls-2" x="196.08" y="78.43" width="9.8" height="9.81"/><rect class="cls-2" x="196.08" y="68.63" width="9.8" height="9.8"/><rect class="cls-1" x="196.08" y="49.02" width="9.8" height="9.81"/><rect class="cls-2" x="186.27" y="78.43" width="9.81" height="9.81"/><rect class="cls-2" x="186.27" y="68.63" width="9.81" height="9.8"/><rect class="cls-1" x="186.27" y="58.83" width="9.81" height="9.8"/><rect class="cls-2" x="176.47" y="78.43" width="9.8" height="9.81"/><rect class="cls-2" x="176.47" y="68.63" width="9.8" height="9.8"/><rect class="cls-2" x="176.47" y="58.83" width="9.8" height="9.8"/><rect class="cls-1" x="176.47" y="49.02" width="9.8" height="9.81"/><rect class="cls-2" x="166.66" y="78.43" width="9.81" height="9.81"/><rect class="cls-2" x="166.66" y="68.63" width="9.81" height="9.8"/><rect class="cls-1" x="166.66" y="58.83" width="9.81" height="9.8"/><rect class="cls-1" x="166.66" y="49.02" width="9.81" height="9.81"/><rect class="cls-1" x="166.66" y="39.22" width="9.81" height="9.8"/><rect class="cls-1" x="166.66" y="29.41" width="9.81" height="9.81"/><rect class="cls-1" x="166.66" y="19.61" width="9.81" height="9.8"/><rect class="cls-2" x="156.86" y="78.43" width="9.8" height="9.81"/><rect class="cls-1" x="156.86" y="68.63" width="9.8" height="9.8"/><rect class="cls-2" x="156.86" y="58.83" width="9.8" height="9.8"/><rect class="cls-1" x="156.86" y="49.02" width="9.8" height="9.81"/><rect class="cls-2" x="156.86" y="39.22" width="9.8" height="9.8"/><rect class="cls-2" x="156.86" y="29.41" width="9.8" height="9.81"/><rect class="cls-1" x="156.86" y="19.61" width="9.8" height="9.8"/><rect class="cls-1" x="156.86" y="9.81" width="9.8" height="9.8"/><rect class="cls-1" x="147.06" y="78.43" width="9.8" height="9.81"/><rect class="cls-2" x="147.06" y="68.63" width="9.8" height="9.8"/><rect class="cls-1" x="147.06" y="58.83" width="9.8" height="9.8"/><rect class="cls-2" x="147.06" y="49.02" width="9.8" height="9.81"/><rect class="cls-1" x="147.06" y="39.22" width="9.8" height="9.8"/><rect class="cls-1" x="147.06" y="29.41" width="9.8" height="9.81"/><rect class="cls-2" x="147.06" y="19.61" width="9.8" height="9.8"/><rect class="cls-1" x="147.06" y="9.81" width="9.8" height="9.8"/><rect class="cls-1" x="147.06" width="9.8" height="9.81"/><rect class="cls-2" x="137.25" y="78.43" width="9.81" height="9.81"/><rect class="cls-1" x="137.25" y="68.63" width="9.81" height="9.8"/><rect class="cls-1" x="137.25" y="58.83" width="9.81" height="9.8"/><rect class="cls-1" x="137.25" y="49.02" width="9.81" height="9.81"/><rect class="cls-1" x="137.25" y="39.22" width="9.81" height="9.8"/><rect class="cls-1" x="137.25" y="29.41" width="9.81" height="9.81"/><rect class="cls-2" x="137.25" y="19.61" width="9.81" height="9.8"/><rect class="cls-1" x="137.25" y="9.81" width="9.81" height="9.8"/><rect class="cls-1" x="137.25" width="9.81" height="9.81"/><rect class="cls-2" x="127.45" y="78.43" width="9.8" height="9.81"/><rect class="cls-2" x="127.45" y="68.63" width="9.8" height="9.8"/><rect class="cls-1" x="127.45" y="58.83" width="9.8" height="9.8"/><rect class="cls-1" x="127.45" y="49.02" width="9.8" height="9.81"/><rect class="cls-2" x="127.45" y="39.22" width="9.8" height="9.8"/><rect class="cls-1" x="127.45" y="29.41" width="9.8" height="9.81"/><rect class="cls-2" x="127.45" y="19.61" width="9.8" height="9.8"/><rect class="cls-1" x="127.45" y="9.81" width="9.8" height="9.8"/><rect class="cls-1" x="127.45" width="9.8" height="9.81"/><rect class="cls-2" x="117.64" y="78.43" width="9.81" height="9.81"/><rect class="cls-2" x="117.64" y="68.63" width="9.81" height="9.8"/><rect class="cls-2" x="117.64" y="58.83" width="9.81" height="9.8"/><rect class="cls-1" x="117.64" y="49.02" width="9.81" height="9.81"/><rect class="cls-1" x="117.64" y="39.22" width="9.81" height="9.8"/><rect class="cls-2" x="117.64" y="29.41" width="9.81" height="9.81"/><rect class="cls-1" x="117.64" y="19.61" width="9.81" height="9.8"/><rect class="cls-1" x="117.64" y="9.81" width="9.81" height="9.8"/><rect class="cls-2" x="107.84" y="78.43" width="9.8" height="9.81"/><rect class="cls-1" x="107.84" y="68.63" width="9.8" height="9.8"/><rect class="cls-2" x="107.84" y="58.83" width="9.8" height="9.8"/><rect class="cls-2" x="107.84" y="49.02" width="9.8" height="9.81"/><rect class="cls-1" x="107.84" y="39.22" width="9.8" height="9.8"/><rect class="cls-1" x="107.84" y="29.41" width="9.8" height="9.81"/><rect class="cls-1" x="107.84" y="19.61" width="9.8" height="9.8"/><rect class="cls-1" x="98.04" y="78.43" width="9.8" height="9.81"/><rect class="cls-2" x="98.04" y="68.63" width="9.8" height="9.8"/><rect class="cls-1" x="98.04" y="58.83" width="9.8" height="9.8"/><rect class="cls-1" x="98.04" y="49.02" width="9.8" height="9.81"/><rect class="cls-1" x="98.04" y="39.22" width="9.8" height="9.8"/><rect class="cls-1" x="88.23" y="78.43" width="9.81" height="9.81"/><rect class="cls-2" x="88.23" y="68.63" width="9.81" height="9.8"/><rect class="cls-1" x="88.23" y="58.83" width="9.81" height="9.8"/><rect class="cls-1" x="88.23" y="49.02" width="9.81" height="9.81"/><rect class="cls-2" x="78.43" y="78.43" width="9.8" height="9.81"/><rect class="cls-1" x="78.43" y="68.63" width="9.8" height="9.8"/><rect class="cls-2" x="68.63" y="78.43" width="9.8" height="9.81"/><rect class="cls-2" x="68.63" y="68.63" width="9.8" height="9.8"/><rect class="cls-1" x="68.63" y="58.83" width="9.8" height="9.8"/><rect class="cls-2" x="58.82" y="78.43" width="9.81" height="9.81"/><rect class="cls-2" x="58.82" y="68.63" width="9.81" height="9.8"/><rect class="cls-2" x="58.82" y="58.83" width="9.81" height="9.8"/><rect class="cls-1" x="58.82" y="49.02" width="9.81" height="9.81"/><rect class="cls-2" x="49.02" y="78.43" width="9.8" height="9.81"/><rect class="cls-1" x="49.02" y="68.63" width="9.8" height="9.8"/><rect class="cls-2" x="49.02" y="58.83" width="9.8" height="9.8"/><rect class="cls-1" x="49.02" y="49.02" width="9.8" height="9.81"/><rect class="cls-2" x="39.21" y="78.43" width="9.81" height="9.81"/><rect class="cls-2" x="39.21" y="68.63" width="9.81" height="9.8"/><rect class="cls-1" x="39.21" y="58.83" width="9.81" height="9.8"/><rect class="cls-1" x="39.21" y="49.02" width="9.81" height="9.81"/><rect class="cls-1" x="29.41" y="78.43" width="9.8" height="9.81"/><rect class="cls-1" x="29.41" y="68.63" width="9.8" height="9.8"/><rect class="cls-1" x="29.41" y="58.83" width="9.8" height="9.8"/><rect class="cls-1" x="29.41" y="49.02" width="9.8" height="9.81"/><rect class="cls-2" x="19.61" y="78.43" width="9.8" height="9.81"/><rect class="cls-1" x="19.61" y="68.63" width="9.8" height="9.8"/><rect class="cls-1" x="19.61" y="58.83" width="9.8" height="9.8"/><rect class="cls-1" x="9.8" y="78.43" width="9.81" height="9.81"/><rect class="cls-1" x="9.8" y="68.63" width="9.81" height="9.8"/><rect class="cls-1" y="78.43" width="9.8" height="9.81"/></g></g></svg>