<svg xmlns="http://www.w3.org/2000/svg" viewBox="0 0 156.86 58.82"><defs><style>.cls-1{fill:#b5c8e8;}.cls-2{fill:#d4def1;}</style></defs><g id="Layer_2" data-name="Layer 2"><g id="Layer_4" data-name="Layer 4"><rect class="cls-1" x="147.05" y="49.02" width="9.81" height="9.8"/><rect class="cls-1" x="137.25" y="49.02" width="9.8" height="9.8"/><rect class="cls-1" x="137.25" y="39.21" width="9.8" height="9.81"/><rect class="cls-1" x="127.45" y="49.02" width="9.8" height="9.8"/><rect class="cls-2" x="127.45" y="39.21" width="9.8" height="9.81"/><rect class="cls-1" x="117.64" y="49.02" width="9.81" height="9.8"/><rect class="cls-2" x="107.84" y="49.02" width="9.8" height="9.8"/><rect class="cls-1" x="107.84" y="39.21" width="9.8" height="9.81"/><rect class="cls-1" x="107.84" y="29.41" width="9.8" height="9.8"/><rect class="cls-2" x="98.03" y="49.02" width="9.81" height="9.8"/><rect class="cls-1" x="98.03" y="39.21" width="9.81" height="9.81"/><rect class="cls-2" x="98.03" y="29.41" width="9.81" height="9.8"/><rect class="cls-2" x="98.03" y="19.6" width="9.81" height="9.81"/><rect class="cls-2" x="88.23" y="49.02" width="9.8" height="9.8"/><rect class="cls-1" x="88.23" y="39.21" width="9.8" height="9.81"/><rect class="cls-1" x="88.23" y="29.41" width="9.8" height="9.8"/><rect class="cls-2" x="88.23" y="19.6" width="9.8" height="9.81"/><rect class="cls-2" x="88.23" y="9.8" width="9.8" height="9.8"/><rect class="cls-2" x="78.43" y="49.02" width="9.8" height="9.8"/><rect class="cls-1" x="78.43" y="39.21" width="9.8" height="9.81"/><rect class="cls-1" x="78.43" y="29.41" width="9.8" height="9.8"/><rect class="cls-1" x="78.43" y="19.6" width="9.8" height="9.81"/><rect class="cls-2" x="78.43" y="9.8" width="9.8" height="9.8"/><rect class="cls-2" x="78.43" width="9.8" height="9.8"/><rect class="cls-1" x="68.62" y="49.02" width="9.81" height="9.8"/><rect class="cls-1" x="68.62" y="39.21" width="9.81" height="9.81"/><rect class="cls-1" x="68.62" y="29.41" width="9.81" height="9.8"/><rect class="cls-2" x="68.62" y="19.6" width="9.81" height="9.81"/><rect class="cls-2" x="68.62" y="9.8" width="9.81" height="9.8"/><rect class="cls-2" x="68.62" width="9.81" height="9.8"/><rect class="cls-1" x="58.82" y="49.02" width="9.8" height="9.8"/><rect class="cls-1" x="58.82" y="39.21" width="9.8" height="9.81"/><rect class="cls-2" x="58.82" y="29.41" width="9.8" height="9.8"/><rect class="cls-2" x="58.82" y="19.6" width="9.8" height="9.81"/><rect class="cls-2" x="58.82" y="9.8" width="9.8" height="9.8"/><rect class="cls-1" x="49.02" y="49.02" width="9.8" height="9.8"/><rect class="cls-2" x="49.02" y="39.21" width="9.8" height="9.81"/><rect class="cls-2" x="49.02" y="29.41" width="9.8" height="9.8"/><rect class="cls-1" x="39.21" y="49.02" width="9.81" height="9.8"/><rect class="cls-1" x="39.21" y="39.21" width="9.81" height="9.81"/><rect class="cls-1" x="29.41" y="49.02" width="9.8" height="9.8"/><rect class="cls-1" x="29.41" y="39.21" width="9.8" height="9.81"/><rect class="cls-2" x="29.41" y="29.41" width="9.8" height="9.8"/><rect class="cls-1" x="19.6" y="49.02" width="9.81" height="9.8"/><rect class="cls-2" x="19.6" y="39.21" width="9.81" height="9.81"/><rect class="cls-2" x="9.8" y="49.02" width="9.8" height="9.8"/><rect class="cls-2" y="49.02" width="9.8" height="9.8"/></g></g></svg>